<?xml version="1.0" encoding="utf-8"?>
<!-- Generator: Adobe Illustrator 16.0.0, SVG Export Plug-In . SVG Version: 6.00 Build 0)  -->
<!DOCTYPE svg PUBLIC "-//W3C//DTD SVG 1.1//EN" "http://www.w3.org/Graphics/SVG/1.1/DTD/svg11.dtd">
<svg version="1.1" id="圖層_1" xmlns="http://www.w3.org/2000/svg" xmlns:xlink="http://www.w3.org/1999/xlink" x="0px" y="0px"
	 width="841.89px" height="595.28px" viewBox="0 0 841.89 595.28" enable-background="new 0 0 841.89 595.28" xml:space="preserve">
<g>
	<path fill-rule="evenodd" clip-rule="evenodd" fill="#FEFEFE" d="M337.258,336.589c-1.12-0.228-1.991-1.063-3.275-1.036
		c-1.003,0.021-1.679-2.64-1.094-4.01c0.207-0.485,0.823-0.896,0.58-1.456c-0.861-1.984,0.038-2.907,1.866-3.386
		c0.277-0.072,0.555-0.285,0.749-0.508c0.358-0.407,0.479-7.907,0.122-8.313c-0.181-0.205-0.5-0.359-0.774-0.394
		c-0.415-0.054-0.859,0.165-0.826,0.607c0.095,1.261-0.881,2.449-0.413,3.652c0.645,1.659-0.268,2.42-1.515,2.834
		c-1.566,0.518-1.976,1.545-1.925,3.022c0.051,1.479-0.023,2.963,0.02,4.445c0.048,1.651-0.543,2.842-2.131,3.515
		c-1.943,0.824-2.244,2.129-1.831,4.255c0.502,2.582,0.292,5.316,0.25,7.982c-0.019,1.216-0.075,2.314,0.989,3.166
		c2.253,1.804,3.129,4.162,2.715,7.012c-0.215,1.479,0.116,2.616,1.83,2.878c1.167,0.177,1.423,0.948,1.471,2.015
		c0.051,1.154,0.284,2.303,0.49,3.444c0.126,0.694,0.335,1.463,1.163,1.575c1.661,0.226,2.502,1.111,2.555,2.777
		c0.016,0.515,0.237,1.019,0.79,0.961c1.992-0.212,3.09,0.492,3.146,2.622c0.009,0.34,0.574,0.916,0.923,0.949
		c1.9,0.18,2.634,1.42,3.02,3.039c0.148,0.619,0.494,0.92,1.14,0.936c1.407,0.031,2.16,0.762,2.192,2.177
		c0.029,1.229,0.745,1.589,1.843,1.576c0.922-0.012,1.845,0.058,2.768,0.069c1.006,0.013,2.243,0.372,2.228,1.276
		c-0.04,2.464,1.735,2.378,3.25,2.715c3.338,0.743,4.758,2.383,4.874,5.873c0.068,2.025-0.079,4.061,0.044,6.08
		c0.09,1.472-0.625,2.473-1.695,3.102c-1.276,0.749-1.504-0.936-2.321-1.341c-0.275-0.137-0.522-0.331-0.783-0.499
		c-0.564-1.32,0.824-1.896,1.097-2.896c0.931-1.832,0.419-3.41-0.854-4.854c-1.266-1.402-2.716-2.539-4.451-3.325
		c-5.762-2.61-10.428-6.731-14.874-11.09c-2.491-2.442-4.844-5.041-7.088-7.729c-1.886-2.673-3.557-5.496-5.954-7.789
		c-1.292-1.236-1.879-2.971-1.95-4.662c-0.121-2.895-0.759-5.703-1.052-8.556c-0.554-5.39,0.173-10.734,1.124-16.035
		c2.442-13.615,10.526-23.077,21.986-30.192c6.316-3.922,13.235-5.277,20.448-5.812c0.622-0.046,1.247-0.053,1.87,0.01
		c6.836,0.698,13.528,2.101,19.958,4.522c6.269,2.359,12.46,4.889,18.387,8.094c5.023,2.716,7.803,6.473,7.813,12.254
		c0.003,1.935,0.64,3.852,0.285,5.817c-0.365,4.338-0.624,8.676-1.659,12.938c-0.532,2.19-1.32,4.317-1.644,6.562
		c-0.066,0.46-0.328,0.885-0.922,0.864c-0.421-1.56-0.452-3.418-1.362-4.6c-1.144-1.485-2.997,0.183-4.599-0.054
		c-1.825-0.269-3.721-0.022-5.584-0.074c-1.67-0.046-3.205-0.092-3.032,2.316c0.071,0.993-0.813,1.035-1.51,0.952
		c-1.428-0.167-2.747,0.42-4.135,0.493c-0.232,0.011-0.628-0.015-0.668,0.087c-0.869,2.237-2.435,3.293-4.875,3.423
		c-0.656,0.034-0.002,0.886,0.351,1.214c1.213,1.126,2.743,0.9,4.206,0.88c1.341-0.021,2.689-0.126,3.411,1.369
		c-1.107,0.243-2.185,0.654-3.332,0.73c1.286-0.206,2.558-0.634,3.874-0.448c0.952-0.101,2.045,0.313,2.734-0.752
		c0.812-1.278,2.164-1.242,3.063-0.595c1.082,0.775,1.42,2.224,1.003,3.586c-0.351,1.145-1.077,1.892-2.461,1.412
		c-0.652-0.227-1.062,0.057-1.112,0.759c-0.059,0.825,0.032,1.612,1.02,1.828c1.225,0.269,3.017,0.036,2.303,2.163
		c-0.57,1.7-0.984,3.841-3.797,2.721c-0.974-0.388-2.132-0.125-3.227,0.054c-3.593,0.587-7.184,0.177-10.772-0.168
		c-0.872-0.083-1.576-0.529-1.811-1.275c-0.475-1.503-1.469-2.138-2.911-2.614c-1.38-0.456-2.032-4.719-0.939-6.11
		c0.957-1.219,1.515-3.273,3.904-2.384c0.402,0.149,1.277-0.326,1.117-1.166c-0.167-0.872-0.897-0.97-1.635-0.971
		c-2.961-0.001-5.922-0.003-8.884-0.004c-4.252-0.001-4.333-0.001-4.308,4.21c0.011,1.832-0.813,2.871-2.42,3.173
		c-1.55,0.29-1.805,1.238-1.827,2.497c-0.006,0.312,0.001,0.624-0.005,0.936c-0.035,1.688-0.902,3.504-2.166,3.814
		c-1.303,0.321-3.421,0.435-4.502-0.668c-1.174-1.195-2.317-2.997-1.521-4.822c0.573-1.315,0.324-3.743,3.035-3.278
		c0.476,0.083,0.451-0.543,0.335-0.909c-0.264-0.834-0.809-1.268-1.741-1.212c-4.124,0.241-8.222-0.286-12.331-0.457
		c-0.774-0.033-1.528,0.063-2.302,0.254c-1.778,0.434-2.856-0.382-2.531-2.146c0.262-1.424-0.354-1.432-1.306-1.387
		c-1.926,0.088-2.628-0.902-2.593-2.732c0.054-2.882,0.019-5.766,0.011-8.649c-0.002-0.873-0.045-1.746,0.934-2.193
		c1.207,0.334,1.551,1.681,2.596,2.208c0.327,0.328,0.543,0.711,0.603,1.176c0.059,0.803-0.279,1.564-0.237,2.366
		c0.002,3.771,1.216,5.311,4.747,6.458c2.909,0.944,5.836,1.557,8.904,1.735c3.502,0.204,6.047-1.702,8.711-3.444
		c0.324-0.211,0.582-0.517,0.893-0.753c0.504-0.382,1.06-0.818,1.693-0.471c0.738,0.406,0.677,1.19,0.527,1.883
		c-0.623,2.891-1.169,5.811-2.771,8.379c-0.783,1.254-1.534,2.53-2.864,4.068c0.149-0.182,0.651-0.137,0.37-0.274
		c-0.031-0.015-0.005-0.089,0.093-0.205c3.231-3.902,4.974-8.384,5.306-13.439c0.118-1.803,0.918-2.303,2.423-1.354
		c1.422,0.897,2.844,1.144,4.442,0.915c2.132-0.302,4.064,1.134,6.212,0.736c3.257-0.604,6.59-0.742,9.798-1.595
		c1.119-0.295,2.04-0.98,2.867-1.882c1.463-1.595,3.017-3.174,5.435-3.218c1.215,0.456,2.463,0.524,3.737,0.308
		c1.783-0.198,3.606,0.304,5.361-0.321c1.699-0.83,2.283-1.697,1.382-3.822c-1.17-2.767-0.88-5.788,0.88-8.457
		c2.01,1.18,1.204,3.527,2.154,5.535c0.794-1.233,0.791-2.281,0.522-3.299c-0.626-2.382-0.63-4.791-0.223-7.171
		c0.618-3.616-0.841-6.261-3.542-8.437c-0.392-0.315-0.798-0.524-1.264-0.24c-0.422,0.258-0.65,0.686-0.628,1.181
		c0.063,1.37,0.605,2.36,2.063,2.719c1.406,0.347,2.386,1.181,2.426,2.739c0.039,1.555,0.137,3.174-1.692,3.946
		c-1.385-0.592-1.132-2.38-2.292-3.134c-1.267-0.972-2.161-2.297-3.251-3.438c-2.073-2.361-4.357-4.429-7.293-5.715
		c-1.003-0.439-1.895-1.045-3.015-0.445c-1.848,1.618-2.08,1.592-3.536-0.399c-0.409-0.559-0.792-1.137-1.311-1.604
		c-1.724-1.287-3.526-2.228-5.794-1.575c-0.874,0.251-1.653-0.076-2.501-0.867c3.263,2.602,3.137,3.737-0.503,6.555
		c2.735-2.091,3.16-2.017,3.803,0.035c-0.29-0.732-0.056-2.204-0.219-3.636c-0.22-1.931,0.394-2.373,2.307-1.845
		c0.899,0.248,1.792,0.532,2.54,1.137c1.34,1.752,3.678,3.092,2.44,5.907c-0.707,1.035-1.676,1.745-2.82,2.231
		c1.4-0.365,2.217-1.543,3.289-2.368c0.211-0.068,0.424-0.076,0.64-0.025c1.188,0.768,1.584,2.26,2.615,2.815
		c-1.064-1.168-2.395-2.495-2.012-4.602c0.265-0.662,0.616-1.255,1.266-1.616c3.174-0.172,5.435,1.683,7.621,3.57
		c0.976,0.842,1.665,2.01,2.761,2.758c0.278,2.058-1.396,2.78-2.661,3.658c-2.505,1.738-5.596,1.637-8.728,2.592
		c1.986-0.533,3.711-0.646,5.346-1.112c1.664-0.475,2.33,0.148,2.511,1.712c-0.072-1.016-0.165-2.092,0.68-2.825
		c0.756-0.656,1.453-1.433,2.374-1.856c1.427-0.655,2.549-0.064,3.489,1.04c1.405,1.792,2.011,3.67,1.422,6.034
		c-0.421,1.692-0.524,3.506-0.61,5.281c-0.037,0.766,0.128,1.584-0.764,2.013c-1.754-0.254-3.034-1.427-4.463-2.313
		c-1.772-1.1-3.582-2.093-5.764-2.014c2.023-0.211,3.612,0.872,5.193,1.857c0.994,0.618,0.819,1.4-0.138,1.992
		c-0.657,0.406-1.343,0.763-2.053,1.068c-0.294,0.11,0.181,0.354-0.019,0.114c-0.021-0.023,0.035-0.06,0.15-0.131
		c2.042-1.258,4.151-1.647,6.382-0.5c0.874,0.326,1.055,1.315,1.748,1.82c1.26,0.92,0.61,1.732-0.211,2.45
		c-0.468,0.41-1.096,0.577-1.71,0.724c-1.504,0.222-3.014,0.148-4.522,0.144c-1.279,0.081-2.523-0.142-3.759-0.421
		c-0.963-0.095-1.943,0.08-2.586,0.754c-1.276,1.341-2.381,1.063-3.825,0.207c-2.801-1.658-6.007-2.292-9.111-3.15
		c-1.373-0.953-0.515-1.479,0.392-1.974c1.297-0.706,2.799-0.982,3.757-1.799c-0.916,0.648-2.242,1.027-3.474,1.608
		c-3.511,1.656-6.682,0.325-9.819-1.147c-0.81-0.38-1.026-1.164-0.876-1.992c0.211-1.161,0.144-2.328,0.169-3.495
		c-0.032,0.257-0.008,0.515-0.011,0.772c-0.052,3.694-0.914,4.289-4.4,2.956c-1.085-0.414-2.16-0.838-3.144-1.045
		c5.874,2.111,11.815,4.506,17.984,6.245c2.51,0.813,5.083,1.439,7.512,2.487c0.91,0.392,1.994,0.77,2.016,2.004
		c0.025,1.369-0.905,2.171-2.089,2.488c-2.245,0.603-4.42,1.897-6.844,0.082c-1.485-1.113-1.453,1.024-2.213,1.55
		c-1.209,0.452-2.434,0.399-3.648,0.063c-1.506-0.419-3.03-0.64-4.595-0.596c-2.701,0.075-4.534-1.854-6.733-2.934
		c-4.997-3.343-10.525-4.066-16.44-3.999c-2.831,0.031-5.872,1.155-8.655-0.479c-0.725-0.922-2.208-1.497-1.588-3.063
		c0.555-1.398,1.87-1.729,3.185-2.049c3.901-0.952,7.652-0.232,11.381,0.855c-3.458-1.317-7.018-1.798-10.702-1.187
		c-0.843,0.141-1.678,0.341-2.529,0.417c-1.066,0.099-1.777-0.373-2.144-1.395c-1.005-2.796,0.872-8.898,3.336-10.809
		c2.891,1.695,4.128,3.839,3.414,6.463c0.862-1.558,1.802-1.625,2.995-0.976c1.912,1.043,3.961,1.727,6.167,1.967
		c-5.38-0.876-9.384-3.823-12.465-8.171c-0.962-2.33,0.61-3.704,1.718-4.998c-1.288,1.314-2.241,2.991-2.746,5.162
		c-0.604,2.602-2.438,4.838-2.681,7.633c-0.153,1.753-0.716,3.453,0.641,5.108C339,335.097,338.202,336.001,337.258,336.589z"/>
	<path fill-rule="evenodd" clip-rule="evenodd" fill="#010503" d="M415.93,327.693c-0.205-3.088-0.265-6.183-0.9-9.237
		c-0.676-3.249-2.596-5.519-5.38-7.089c-8.219-4.637-16.916-8.087-25.918-10.945c-4.857-1.541-9.813-2.312-14.718-2.366
		c-14.783-0.164-26.168,6.754-35.234,18.085c-4.438,5.548-6.569,11.938-7.695,18.791c-0.905,5.511-1.849,11.071-0.444,16.587
		c0.663,2.601-0.008,5.257,0.877,7.789c0.36,1.032,0.612,2.118,1.463,2.843c2.651,2.256,4.315,5.229,6.055,8.151
		c0.13,0.118,0.174,0.236,0.131,0.354c-0.044,0.118-0.087,0.178-0.13,0.178c-0.227,0.046-0.523,0.068-0.643-0.095
		c-1.366-1.883-3.23-2.293-5.388-1.877c-4.485-4.5-7.245-9.895-7.921-16.205c-0.278-2.589,0.366-5.22,0.44-7.854
		c0.171-6.122,1.022-12.171,2.642-18.104c1.524-5.585,4.823-10.097,8.407-14.475c6.971-8.513,15.858-14.023,26.382-17.033
		c0.776-0.222,1.52-0.243,2.29-0.256c0.121,0.115,0.214,0.252,0.193,0.398c-0.179,1.275-2.046,1.212-2.017,1.298
		c0.619,1.777-0.902,1.135-1.522,1.516c3.238-1.055,6.563-1.615,10.028-1.657c-1.634-0.528-3.246-0.453-4.863-0.366
		c-0.865,0.046-1.866,0.159-1.389-1.284c4.958-0.832,9.828-1.183,14.907-0.171c4.836,0.962,9.619,1.936,14.233,3.664
		c4.533,1.698,9.056,3.424,13.563,5.188c0.44,0.172,0.812,0.409,1.296,0.293c0.786-0.241,1.314-0.058,1.404,0.851
		c2.462,1.436,4.913,2.892,7.389,4.303c4.783,2.726,6.815,6.972,7.209,12.323c0.296,4.024,0.324,8.017-0.136,12.02
		c-1.635,0.439-1.287-0.885-1.347-1.644c-0.114-1.446,0.278-2.923-0.127-4.356c-0.171-0.605-0.025-1.529-1.018-1.569
		c-0.771-0.03-0.95,0.641-1.183,1.217C416.702,327.365,416.574,327.874,415.93,327.693z"/>
	<path fill-rule="evenodd" clip-rule="evenodd" fill="#010808" d="M494.583,207.412c4.055,1.62,7.435,4.273,10.753,7.022
		c0.441,0.185-0.344,1.531,0.902,0.954c6.842,5.628,12.088,12.525,16.371,20.242c3.36,6.052,4.249,12.635,4.846,19.363
		c0.491,5.552-0.023,11.019-1.044,16.436c-1.161,6.162-4.007,11.619-7.787,16.575c-2.669,3.498-5.242,7.071-8.603,10.002
		c-6.457,5.629-13.412,10.407-21.545,13.305c-0.558-1.138,0.554-2.345-0.147-3.478c0.388-0.981,1.341-1.249,2.158-1.631
		c5.725-2.68,10.607-6.608,15.563-10.43c1.074-0.828,1.781-1.916,2.316-3.135c0.142-0.177,0.308-0.325,0.498-0.446
		c2.552-1.333,3.541-3.998,5.193-6.099c1.221-1.551,1.957-3.522,3.871-4.475c1.065,0.283,0.761,0.943,0.475,1.555
		c1.272-2.118,4.108-3.171,4.37-6.236c-1.007,0.921-1.688,1.947-2.165,3.143c-0.214,0.538-0.677,0.881-1.263,0.86
		c-0.871-0.032-0.84-0.731-0.884-1.352c1.11-3.875,2.826-7.555,3.377-11.614c1.188-8.754,0.824-17.447-1.607-25.896
		c-1.557-5.412-4.955-10.003-8.451-14.41c-0.869-1.096-1.866-2.092-2.445-3.391c0.453-1.441-0.319-2.706-0.62-4.128
		c-0.311,0.668,0.107,1.593-0.803,1.921c-1.845-0.493-2.902-2.072-4.21-3.229c-12.268-10.865-27.144-15.514-42.865-18.205
		c-1.61-0.275-3.281,0.188-4.866-0.391c-0.083-1.508,0.416-1.96,2.38-1.735c2.561,0.292,5.144,0.054,7.692,0.428
		c0.901,0.132,1.593-0.045,1.888-1.009c5.811,1.204,11.486,2.856,16.994,5.074c1.206,0.486,2.389,1.027,3.584,1.542
		c0.594,0.656,2.676,1.032,0.449,2.194C490.678,208.163,492.794,206.355,494.583,207.412z"/>
	<path fill-rule="evenodd" clip-rule="evenodd" fill="#010404" d="M488.463,308.031c2.084,1.085-0.065,2.187,0.014,3.278
		c-5.148,2.23-10.493,3.788-15.911,5.261c-5.958,1.62-11.975,2.568-18.053,2.429c-4.093-0.095-8.648,0.613-11.975-3.176
		c-0.902-1.031-2.366-1.429-4.033-1.001c-2.748,0.706-5.351-0.017-7.688-1.65c-1.205-0.842-2.255-2.101-2.144-3.39
		c0.241-2.767-1.329-2.478-2.955-2.104c-4.315,0.998-8.431-0.041-12.513-1.173c-2.367-0.656-4.661-1.572-7.126-1.841
		c-0.469-0.283-0.937-0.567-1.404-0.851c-0.988-2.179-3.265-2.961-4.881-4.46c-0.724-0.672-1.573-1.205-2.109-2.069
		c0.574-1.474,1.167-0.217,1.811-0.057c1.894,0.472,3.667,1.509,5.722,1.266c3.524,2.405,7.632,3.354,11.577,4.735
		c3.545,1.242,7.059,0.819,10.619,0.36c0.891-0.114,1.304-0.73,1.723-1.413c0.935-1.523,2.351-2.188,4.109-2.252
		c4.063-0.148,7.756,0.717,10.585,3.881c1.64,1.833,2.613,3.934,1.719,6.416c-0.517,1.434-0.021,2.215,1.22,2.78
		c3.787,1.726,7.74,2.018,11.858,1.743c4.106-0.271,8.148-0.952,12.222-1.405c0.831,0.581,0.774,1.115-0.163,1.456
		c-0.702,0.255-1.362,0.619-1.912,0.749c1.07-0.604,3.065-0.263,3.171-2.448c1.387-1.181,3.178-1.127,4.807-1.581
		c1.1-0.308,2.306-0.334,3.431-1.255c-2.81-2.395-6.521-3.908-7.403-7.955c0.234-0.814,0.742-1.204,1.607-1.044
		c1.861,1.932,3.667,3.917,6.121,5.173c2.033,1.041,4.101,1.753,6.426,1.367C487.456,307.714,488.008,307.594,488.463,308.031z"/>
	<path fill-rule="evenodd" clip-rule="evenodd" fill="#020D0B" d="M415.93,327.693c1.02-0.643-0.238-2.928,2.038-2.717
		c2.753,0.252,1.326,2.501,1.868,3.788c0.602,1.427-1.145,3.268,0.706,4.546c0.026,3.687-1.473,7.079-2.062,10.647
		c-0.688,4.168-1.97,8.261-1.205,12.59c0.381,2.157,1.729,3.76,2.753,5.543c0.521,0.909,0.625,1.597,0.146,2.544
		c-2.084,4.118-3.044,8.679-4.932,12.867c-2.27,5.032-4.913,9.897-8.348,14.231c-1.035,1.306-2.662,2.078-4.697,1.803
		c-3.369-0.457-6.759-0.854-10.185-0.819c-1.522,0.017-2.193,0.905-2.759,2.033c-0.449,0.894-0.885,1.804-1.204,2.748
		c-0.576,1.705-1.572,2.872-3.453,3.086c-0.175-0.172-0.313-0.48-0.171-0.604c1.801-1.563,1.691-3.847,2.232-5.834
		c-1.298,0.98-1.259,2.625-1.847,3.985c-0.265,0.614-0.431,1.993-1.619,0.704c0.254-3.087,1.418-5.835,3.39-8.172
		c1.108-1.313,2.611-2.122,4.449-2.197c3.499-0.141,6.98,0.025,10.417,0.661c1.57,0.291,2.498-0.272,3.287-1.523
		c3.922-6.214,6.799-12.854,9.003-19.882c0.944-3.012,0.604-5.311-0.854-7.814c-1.574-2.702-1.267-5.694-0.941-8.604
		c0.111-0.991,0.226-1.981,0.269-2.98c1.433-5.51,2.985-10.997,3.311-16.725C415.596,330.29,415.419,328.956,415.93,327.693z"/>
	<path fill-rule="evenodd" clip-rule="evenodd" fill="#04171A" d="M404.747,298.559c-0.363,1.047-0.789,1.722-1.807,0.483
		c-0.405-0.492-0.681-1.791-1.668-0.226c-0.373,0.59-1.311-0.646-2.032-0.97c-0.512-0.229-0.631-1.417-1.555-0.561
		c-6.575-5.332-9.338-12.616-11.084-20.626c-1.216-5.581-1.089-11.204-1.608-16.803c1.19-1.423-0.013-3.66,1.725-4.972
		c0.334-0.252-0.557-1.018-0.481-1.652c0.101-0.843-0.764-1.549-0.326-2.43c0.158-3.51,1.191-6.825,2.381-10.082
		c1.544-4.224,2.321-8.69,4.134-12.829c0.473-1.081,1.009-2.071,1.948-2.805c0.604,0.243,1.105,1.253,1.865,0.105
		c0.544-0.823,1.311-0.681,2.011-0.077c0.127,0.208,0.185,0.433,0.181,0.676c-4.878,8.765-6.736,18.486-8.831,28.118
		c-0.683,3.139-0.372,6.388-0.108,9.551c0.445,5.337,0.66,10.726,2.368,15.892c1.629,4.931,3.883,9.406,7.651,13.154
		C401.38,294.365,403.704,295.944,404.747,298.559z"/>
	<path fill-rule="evenodd" clip-rule="evenodd" fill="#020D07" d="M334.034,370.677c-0.006-0.124-0.006-0.249,0.002-0.375
		c3.511,3.372,6.486,7.272,10.208,10.433c3.653,3.103,7.346,6.15,11.793,8.117c1.687,0.745,3.327,1.614,4.257,3.353
		c-0.897,1.093-0.897,1.093-2.043,0.064c-0.108,0.997,1.087,0.542,1.131,1.056c0.062,0.713,0.491,0.273,0.717,0.394
		c0.686,0.364,0.608,1.094,0.198,1.583c-0.701,0.83-0.729,1.817-0.876,2.837c0.492-0.499,0.5-2.446,1.782-0.675
		c-0.035,1.172-1.311,1.659-1.511,2.739c-1.596,0.694-2.833,2.165-4.696,2.263c-0.823,0.043-1.944,0.337-2.335-0.486
		c-0.197-0.414,0.549-1.335,0.968-1.959c0.197-0.293,0.644-0.409,0.949-0.64c2.802-2.123,2.788-4.612-0.314-6.125
		c-5.475-2.669-10.354-6.13-14.566-10.47c-3.939-4.06-8.299-7.791-11.014-12.905c1.072-0.836,2.167,0.473,3.297-0.028
		c0.276-0.122,0.469,0.552,0.309,0.931c-0.807,1.904,1.108,0.787,1.494,1.359C334.159,371.704,333.424,371.074,334.034,370.677z"/>
	<path fill-rule="evenodd" clip-rule="evenodd" fill="#061A1D" d="M467.932,197.926c0.021,1.17,0.041,1.732-1.698,1.498
		c-2.751-0.371-5.595-0.001-8.4-0.452c-0.473-0.076-1.746-0.215-2.107,0.868c-0.686,0.868-1.667,0.797-2.572,0.685
		c-7.4-0.914-14.527,0.603-21.637,2.34c-2.188,0.535-4.349,1.164-6.495,1.842c-1.783,0.176-3.538-0.407-5.332-0.209
		c-0.453,0.049-0.931-0.137-0.925-0.771c13.843-6.59,28.426-8.275,43.522-6.566c1.527,0.411,3.029,1.043,4.66,0.512
		C467.317,197.589,467.669,197.584,467.932,197.926z"/>
	<path fill-rule="evenodd" clip-rule="evenodd" fill="#010403" d="M435.063,326.302c0.657,0.75,0.314,1.304-0.265,1.94
		c-2.15,2.367-5.008,2.626-7.817,2.271c-2.633-0.331-3.966-2.389-4.662-4.872c-0.525-1.873,0.704-3.153,1.386-4.63
		c1.353-2.924,5.675-3.792,7.888-1.404c1.114,1.202,2.313,2.501,2.646,4.258c0.085,0.14,0.145,0.384,0.08,0.402
		c-1.381,0.418-2.13,2.29-3.936,1.729c-0.748,0-1.492-0.189-2.521-0.03c0.832,0.711,1.556,0.543,2.284,0.331
		C431.784,326.163,433.425,325.559,435.063,326.302z"/>
	<path fill-rule="evenodd" clip-rule="evenodd" fill="#060806" d="M337.258,336.589c0.509-1.049,0.845-1.746-0.123-3.091
		c-1.422-1.973,0.016-4.459,0.311-6.695c0.193-1.462,0.667-2.993,1.879-4.102c0.263-0.241,0.554-0.677,0.518-0.986
		c-0.416-3.525,2.567-4.954,4.391-7.11c-0.609,2.321-3.535,3.703-2.724,6.591c0.276,0.334,0.302,0.665-0.018,0.989
		c-3.161,2.823-3.254,6.615-3.17,10.406c0.021,0.956,0.636,1.194,1.817,0.932c4.683-1.036,9.346-1.009,13.806,1.149
		c0.578,0.279,1.397,0.539,1.046,1.194c-0.322,0.603-0.996,0.021-1.579-0.187c-4.087-1.464-8.286-1.913-12.541-0.834
		c-0.817,0.207-1.763,0.503-2.002,1.635c-0.261,1.234,0.756,1.243,1.393,1.654c0.258,0.166,0.44,0.436,0.312,0.791
		c-0.416,0.24-0.635,0.663-0.937,1.009c-1.361-0.237-1.523-1.635-2.328-2.409C337.293,337.213,337.275,336.9,337.258,336.589z"/>
	<path fill-rule="evenodd" clip-rule="evenodd" fill="#242E2D" d="M418.764,203.728c2.041,0.148,4.083,0.296,6.125,0.444
		c-0.139,1.171-1.211,1.34-1.988,1.665c-1.772,0.74-3.381,1.856-5.275,2.308c-1.771-0.404-3.136,0.661-4.613,1.298
		c-1.026,0.443-1.165,1.345-1.072,2.33c-0.159,0.585-0.488,0.964-1.145,0.944c-1.065-0.673-2.103-0.109-3.105,0.153
		c-0.714,0.186-1.326,0.531-1.734-0.391C409.662,208.734,413.719,205.509,418.764,203.728z"/>
	<path fill-rule="evenodd" clip-rule="evenodd" fill="#04171A" d="M395.257,223.775c1.827-2.677,3.617-5.385,6.166-7.467
		c1.139,0.425,2.083,0.6,2.992-0.672c0.535-0.747,1.691-1.184,2.4,0.173c0.029,0.5-0.185,0.924-0.513,1.257
		c-2.554,2.594-4.999,5.286-7.362,8.055c-0.146,0.171-0.411,0.199-0.648,0.202l-0.14-0.125c-0.643-0.588-0.095-1.505-0.566-2.145
		C396.932,223.752,396.317,224.484,395.257,223.775z"/>
	<path fill-rule="evenodd" clip-rule="evenodd" fill="#0D2024" d="M406.603,215.905c-0.943-0.985-1.901-0.35-2.195,0.412
		c-1.104,2.86-2.003,1.149-2.985-0.008c1.325-1.497,2.789-2.831,4.535-3.83c1.326,0.704,2.401-0.416,3.413-0.781
		c1.233-0.445,1,0.474,1.414,0.776C409.999,214.359,408.554,215.44,406.603,215.905z"/>
	<path fill-rule="evenodd" clip-rule="evenodd" fill="#0B251B" d="M360.675,294.841c0.316,1.784,1.475,0.438,2.2,0.533
		c1.836,0.24,3.697,0.281,5.588,0.403c-1.015,1.182-6.337,2.31-13.471,2.81c2.408-0.917,3.665-2.499,5.253-3.652
		C360.389,294.904,360.533,294.873,360.675,294.841z"/>
	<path fill-rule="evenodd" clip-rule="evenodd" fill="#052E1D" d="M334.034,370.677c-0.021,0.59,0.288,1.019,0.664,1.434
		c0.229,0.252,0.694,0.521,0.266,0.923c-0.302,0.284-0.68,0.327-0.984-0.1c-0.221-0.312-0.546-0.78-0.91-0.546
		c-0.672,0.435-1.148,0.629-1.723-0.142c-0.773-1.037,0.827-1.158,0.596-2.176c-1.267,1.833-2.104-0.389-3.261-0.19
		c-0.226-0.34-0.451-0.679-0.677-1.018C330.773,366.945,332.371,368.918,334.034,370.677z"/>
	<path fill-rule="evenodd" clip-rule="evenodd" fill="#112C22" d="M383.19,398.836c1.57,0.485,1.157-1.023,1.272-1.533
		c0.366-1.628,0.824-3.109,2.403-4.164c0.414,2.898-0.031,5.435-2.269,7.445C384.041,400.071,382.79,400.117,383.19,398.836z"/>
	<path fill-rule="evenodd" clip-rule="evenodd" fill="#1C3C43" d="M385.911,250.803c0.604,1.621,2.398,3.687,1.14,4.839
		c-1.438,1.316,0.343,3.769-2.058,4.214C384.87,256.795,385.162,253.775,385.911,250.803z"/>
	<path fill-rule="evenodd" clip-rule="evenodd" fill="#242E2A" d="M494.583,207.412c-0.612,0.022-1.38-0.184-1.812,0.107
		c-2.061,1.396-3.467-0.207-5.324-0.843c0.772-0.521,1.602-0.123,2.055-0.857c-0.104-0.547-1.034-0.564-0.992-1.277
		C490.826,204.88,492.685,206.186,494.583,207.412z"/>
	<path fill-rule="evenodd" clip-rule="evenodd" fill="#1A3635" d="M395.257,223.775c1.555,0.217,1.8-1.29,2.621-2.191
		c0.521,1.296,0.669,2.436,0.273,3.615c-0.533,0.094-1.111-0.512-1.611,0.328c-1.022,1.716-1.753,1.246-2.166-0.439
		C394.39,224.463,394.758,224.075,395.257,223.775z"/>
	<path fill-rule="evenodd" clip-rule="evenodd" fill="#141A18" d="M398.043,376.821c1.398,0.49,2.896,0.323,4.366,0.447
		c0.499,0.043,0.912,0.128,0.813,0.805c-0.072,0.495-0.398,0.751-0.784,0.606c-1.503-0.563-3.088-0.276-4.611-0.535
		c-0.501-0.086-1.219-0.21-1.032-0.954C396.94,376.615,397.571,376.893,398.043,376.821z"/>
	<path fill-rule="evenodd" clip-rule="evenodd" fill="#081F20" d="M435.063,326.302c-1.545,0.15-3.092,0.302-4.637,0.453
		c-0.382-0.438-0.389-0.894-0.06-1.365c1.702,0.539,2.641-0.865,3.872-1.524C434.847,324.564,434.818,325.479,435.063,326.302z"/>
	<path fill-rule="evenodd" clip-rule="evenodd" fill="#010808" d="M466.946,197.673c-1.309,0.857-3.221,0.647-4.66-0.512
		C463.89,196.878,465.388,197.546,466.946,197.673z"/>
	<path fill-rule="evenodd" clip-rule="evenodd" fill="#243C3F" d="M506.238,215.388c-0.795,0.423-1.465,1.468-2.586,0.549
		c0.214-0.957,1.839-0.234,1.684-1.503C505.874,214.528,506.072,214.943,506.238,215.388z"/>
	<path fill-rule="evenodd" clip-rule="evenodd" fill="#9FA9A6" d="M395.396,354.735c-1.646,0.189-3.29,0.377-4.935,0.566
		c1.274-0.607,2.547-1.12,3.951-0.971c0.328,0.05,0.656,0.099,0.984,0.147C395.396,354.563,395.396,354.65,395.396,354.735z"/>
	<path fill-rule="evenodd" clip-rule="evenodd" fill="#6E7775" d="M395.396,354.735c0.009-0.085,0.009-0.172,0-0.257
		c0.764-0.205,1.528-0.411,2.292-0.617c0.114,0.327,1.323,0.599,0.175,0.956C397.122,355.049,396.224,354.779,395.396,354.735z"/>
	<path fill-rule="evenodd" clip-rule="evenodd" fill="#121A15" d="M378.912,347.948c-0.891,0.334-1.701,0.427-2.654-0.057
		c-0.793-0.403-1.85-0.667-2.698-0.507c-2.547,0.481-4.753,0.091-6.735-2.227c-0.659,3.188-0.758,6.099-1.765,8.862
		c-1.082,2.972-2.982,5.36-4.7,7.901c-0.362,0.536-0.862,0.813-1.348,0.36c-0.641-0.598,0.102-0.912,0.444-1.266
		c3.715-3.844,5.27-8.582,5.866-14.077c-1.874,1.213-3.666,2.108-5.119,3.39c-1.531,1.348-3.246,1.609-5.099,1.721
		c-4.103,0.247-7.966-0.835-11.745-2.231c-2.811-1.038-3.97-3.326-3.627-6.683c0.317-0.271,0.643-0.243,0.976-0.034
		c1.542,6.632,7.313,6.052,12.081,6.845c4.143,0.689,7.502-1.477,10.564-4.046c0.633-0.532,0.914-1.025,0.187-1.719
		c-0.35-0.334-0.961-0.72-0.25-1.304c0.768-0.275,1.477,0.001,2.191,0.225c0.606,0.321,1.247,0.592,1.812,0.973
		c1.811,1.221,3.619,2.248,5.977,1.897c1.471-0.218,2.856,0.535,4.272,0.904c0.875,0.226,1.851,0.253,2.731-0.203
		C380.678,348.016,379.477,347.641,378.912,347.948z"/>
	<path fill-rule="evenodd" clip-rule="evenodd" fill="#FEFEFE" d="M363.523,305.623c-1.251-1.295-6.229-1.93-7.56-0.934
		c-0.299,0.223-0.57,0.551-0.724,0.89c-1.211,2.648-2.808,3.226-5.358,1.894c-0.345-0.179-0.729-0.378-0.613-0.854
		c0.122-0.499,0.593-0.46,0.955-0.434c2.009,0.145,3.121-0.597,3.04-2.78c-0.034-0.894,0.369-1.352,1.479-1.201
		c4.141,0.564,8.277-0.142,12.415-0.179c5.466-0.047,10.935,0.254,16.402,0.414c1.244,0.037,1.621,0.843,1.451,1.907
		c-0.215,1.335-1.076,0.571-1.785,0.508c-4.186-0.378-8.382-1.187-12.561,0.072c-0.22,0.065-0.555,0.229-0.655,0.141
		c-1.906-1.673-3.415,0.162-5.081,0.547C364.462,306.096,363.995,306.092,363.523,305.623z"/>
	<path fill-rule="evenodd" clip-rule="evenodd" fill="#0B110D" d="M363.523,305.623c0.468-0.002,0.937-0.006,1.404-0.009
		c4.3,0.563,8.618,0.972,12.952,1.318c-1.161,1.139-2.433,0.619-3.633,0.692c-1.208,0.074-1.706,0.378-1.974,1.84
		c-0.688,3.761-0.04,7.274,1.054,10.8c-0.001,0.879-0.511,0.656-1.007,0.465c-0.366-0.051-0.733-0.101-1.1-0.151
		c0.735-3.29-1.257-6.403-0.562-9.726c0.696-3.332,0.211-3.838-3.153-4.02c-3.817-0.205-5.065,0.277-11.151,4.307
		c2.341,3.169-0.2,10.295-4.034,11.301c-0.35,0.093-0.816,0.296-0.967-0.221c-0.125-0.427,0.203-0.722,0.601-0.861
		c3.494-1.233,3.864-4.479,4.361-7.36c0.44-2.553-3.19-4.508-5.554-3.184c-1.073,0.602-2.154,1.243-3.073,2.047
		c-0.86,0.754-1.557,0.692-2.411,0.051c1.396-1.138,2.75-2.293,4.408-3.013c0.563-0.244,1.242-0.836,1.666-0.688
		c4.616,1.614,7.528-2.232,11.261-3.4C362.905,305.719,363.218,305.685,363.523,305.623z"/>
	<path fill-rule="evenodd" clip-rule="evenodd" fill="#FEFEFE" d="M408.024,325.357c2.529-2.803,1.94-5.039-1.667-6.106
		c-1.731-0.512-1.207-2.191-1.727-3.283c-0.381-0.8,0.906-1.447,1.426-2.179c0.059-0.084,0.294-0.061,0.445-0.054
		c0.676,0.032,4.623,4.404,4.771,5.128c0.597,2.923,0.07,5.844-0.077,8.747c-0.096,1.873,1.333,3.494,0.57,5.422
		c-0.286,0.723,0.179,1.996-1.074,1.912c-0.931-0.063-1.309-1.194-1.239-2.005c0.14-1.634-0.498-3.007-1.06-4.433
		C407.823,327.509,407.478,326.484,408.024,325.357z"/>
	<path fill-rule="evenodd" clip-rule="evenodd" fill="#1C241F" d="M392.165,363.179c-2.573,0.075-4.747-0.241-6.865-0.851
		c-1.76-0.507-2.777-1.912-3.422-3.492c-0.57-1.396,0.387-2.14,1.97-2.114c2.311,0.036,4.65-0.045,6.932-0.383
		c2.175-0.324,4.332,0.04,6.489-0.186c0.588-0.063,1.334-0.045,1.356,0.862c0.021,0.906-0.71,0.648-1.179,0.635
		c-0.782-0.023-1.401,0.352-1.082,1.041c0.433,0.933-1.426,2.101,0.357,2.746c0.34,0.123,0.569,0.336,0.52,0.644
		c-0.067,0.413-0.425,0.601-0.832,0.699C394.896,363.151,393.378,363.458,392.165,363.179z"/>
	<path fill-rule="evenodd" clip-rule="evenodd" fill="#0B1410" d="M378.912,347.948c0.212-0.683,1.296-0.436,1.363-1.274
		c-0.902-1.812,0.812-1.818,1.67-2.294c1.347-0.748,1.336,0.194,1.262,1.153c-0.036,0.459,0.379,0.409,0.652,0.417
		c2.355,0.064,4.655-0.36,6.625-1.613c0.856-0.545,1.288-1.629-0.317-2.398c-2.712-1.3-5.669-1.878-8.399-3.09
		c-0.348-0.194-0.769-0.35-0.464-0.887c3.644,0.508,7.06,1.69,10.158,3.667c0.825,0.526,0.983,0.943,1.768-0.254
		c0.555-0.847,1.929-2.015,3.528-1.426c0.54,0.288,0.994,0.606,0.459,1.279c-1.805-0.05-3.083,1.041-4.086,2.263
		c-2.008,2.441-4.695,3.362-7.62,3.775c-1.731,0.244-3.523-0.007-5.144,0.966C380.014,348.444,379.303,348.523,378.912,347.948z"/>
	<path fill-rule="evenodd" clip-rule="evenodd" fill="#121814" d="M381.304,337.962c0.155,0.296,0.309,0.591,0.464,0.887
		c-2.908-0.4-5.604-1.557-8.368-2.437c-3.967-1.264-7.647-3.346-12.192-4.091c2.272-1.381,3.956-0.205,5.655,0.262
		c1.165,0.321,2.642,1.436,3.416,0.769c1.153-0.996,0.691-2.885,0.858-4.405c0.066-0.604-1.342-1.353-0.171-1.61
		c1.008-0.222,1.042,1.028,1.034,1.892c-0.004,0.388,0.047,0.774,0.088,1.159c0.183,1.705-1.626,4.12,1.658,4.722
		c1.92,0.352,3.494,1.756,5.759,1.221c2.788-0.658,5.283-1.791,7.735-3.231c-0.667,1.665-2.09,2.286-3.555,3.027
		C382.852,336.548,381.096,336.111,381.304,337.962z"/>
	<path fill-rule="evenodd" clip-rule="evenodd" fill="#0F1210" d="M365.482,343.103c-0.807,0.013-1.614,0.024-2.42,0.037
		c-1.649,0.35-2.973-0.704-4.45-1.077c-2.205-0.555-4.352-0.963-6.665-0.688c-3.339,0.398-6.651-0.502-9.989-0.501
		c-0.544-0.275-1.109-0.275-1.684-0.089c-0.212-0.282-0.424-0.567-0.636-0.851c-0.068-0.402-0.577-0.781-0.218-1.187
		c0.395-0.445,0.77,0.082,1.154,0.178c3.925,0.626,7.864-0.021,11.797,0.128C357.121,339.234,361.591,340.198,365.482,343.103z"/>
	<path fill-rule="evenodd" clip-rule="evenodd" fill="#111C16" d="M408.024,325.357c0.105,1.052,0.599,2.058,0.368,3.149
		c-0.398,3.221-1.83,6.352,0.366,9.647c1.034,1.551-0.909,2.426-2.194,3.107c-0.939,0.424-1.85,0.206-2.878,0.132
		c0.357-1.316,1.538-0.402,1.932-1.126c0.599-0.564,1.845-0.55,1.622-1.867c-0.343-0.386-2.691,1.157-1.162-1.198
		c0.385-0.595-0.778-0.543-0.915-1.062c-0.094-0.461,0.019-0.709,0.545-0.527c1.177-1.07,0.51-2.577,0.618-3.772
		c0.277-3.08,1.839-6.386-0.685-9.289c-0.14-0.444,0.034-0.579,0.459-0.467C407.462,322.753,407.5,324.198,408.024,325.357z"/>
	<path fill-rule="evenodd" clip-rule="evenodd" fill="#19241F" d="M386.893,310.865c-0.567-0.206-1.121-0.507-1.707-0.596
		c-0.788-0.12-1.557-1.22-2.29-0.423c-0.631,0.686,0.402,1.75,0.306,2.222c-0.316,1.534-0.04,2.864,0.335,4.297
		c0.172,0.653-0.659,0.674-1.182,0.965c-0.214-1.324,0.092-3.347-0.855-3.482c-1.653-0.237-2.713,1.654-4.012,2.641
		c-0.727-0.652-0.257-1.023,0.157-1.357c0.483-0.389,1.034-0.695,1.505-1.096c2.569-2.185,2.553-3.154-0.053-5.164
		c-0.29-0.224-0.581-0.444-0.84-0.777c3.19,1.065,6.974-0.609,9.766,2.233C387.797,310.823,387.448,311.061,386.893,310.865z"/>
	<path fill-rule="evenodd" clip-rule="evenodd" fill="#1A2521" d="M406.101,322.085c-0.153,0.155-0.306,0.312-0.459,0.467
		c-0.809-0.878-1.956-1.485-2.872-0.718c-1.252,1.05-3.378,1.641-2.947,3.986c0.181,0.978,0.459,1.988-0.898,2.366
		c-0.499-0.607-0.069-1.097-0.025-1.612c0.12-1.417-0.041-2.426-1.987-1.719c-2.154,0.782-4.456,0.948-6.797,0.862
		c1.723-1.272,3.827-1.337,5.805-1.748c2.909-0.604,5.372-1.821,6.86-4.541c-0.166-0.27-0.133-0.514,0.098-0.729
		C404.382,319.419,404.943,321.037,406.101,322.085z"/>
	<path fill-rule="evenodd" clip-rule="evenodd" fill="#0E120E" d="M341.493,322.185c0.006-0.33,0.012-0.66,0.018-0.989
		c1.856,1.474,3.195,3.454,5.276,4.773c2.156,1.367,4.308,2.407,6.827,2.691c0.795,0.09,1.784,0.177,1.458,1.269
		c-0.314,1.055-1.189,0.094-1.69,0.035c-2.058-0.239-4.169-0.745-5.83-1.969c-1.544-1.138-2.08-0.843-2.463,0.829
		c-0.095,0.411-0.064,0.953-0.662,1.189c-1.15-0.749-0.305-1.613-0.093-2.421c0.275-1.053,0.533-1.989-0.762-2.689
		C342.538,324.345,342.074,323.181,341.493,322.185z"/>
	<path fill-rule="evenodd" clip-rule="evenodd" fill="#34413D" d="M405.709,335.613c-0.182,0.176-0.364,0.351-0.545,0.527
		c-4.215-0.76-5.201-0.5-7.457,1.961c-0.195-1.6-0.195-1.6,4.121-3.76c-2.234-1.052-3.787-3.248-6.483-1.637
		c-0.306,0.182-0.665,0.224-0.766-0.119c-0.099-0.333-0.016-0.747,0.075-1.104c0.163-0.639,0.667-0.848,1.263-0.746
		c1.908,0.328,3.779,0.742,5.405,1.914C402.753,333.682,404.245,334.63,405.709,335.613z"/>
	<path fill-rule="evenodd" clip-rule="evenodd" fill="#0E231B" d="M361.203,397.463c-0.69-0.706-1.015-0.379-1.194,0.413
		c-0.22,0.975-0.83,1.527-2.398,1.927c1.77-1.819,0.646-4.235,3.009-5.342c-1.082-0.533-1.339,0.635-1.977,0.185
		c1.195-1.559-1.92-1.396-1.116-2.79c0.453-0.784,1.246-0.214,1.287,0.036c0.255,1.557,0.849,0.894,1.479,0.313
		C362.069,393.702,362.287,395.47,361.203,397.463z"/>
	<path fill-rule="evenodd" clip-rule="evenodd" fill="#111A17" d="M402.879,318.699c-0.032,0.243-0.065,0.485-0.098,0.729
		c-1.449-0.137-1.877-1.483-2.716-2.325c-2.102-2.108-4.537-3.529-7.524-3.915c-0.77,0.055-0.809-0.285-0.452-0.839
		c0.893-0.938,1.919-0.576,2.767-0.08C397.84,314.014,401.207,315.312,402.879,318.699z"/>
	<path fill-rule="evenodd" clip-rule="evenodd" fill="#FEFEFE" d="M385.735,306.18c1.898,0,3.586-0.013,5.273,0.005
		c0.762,0.008,1.473,0.279,1.402,1.158c-0.069,0.866-0.907,0.762-1.465,0.674C389.189,307.745,386.874,309.047,385.735,306.18z"/>
	<path fill-rule="evenodd" clip-rule="evenodd" fill="#293832" d="M392.089,312.35c0.151,0.279,0.302,0.56,0.452,0.839
		c-0.307,0.478-0.614,0.956-0.921,1.434c-0.727,0.414-0.232,1.457-0.963,1.87l-0.196,0.021l-0.196-0.021
		c-0.396,0.23-0.782,0.303-1.139-0.074c0.722-0.886,0.669-1.769-0.009-2.65c-0.743-0.966-1.483-1.935-2.224-2.902
		c0.377-0.179,0.753-0.359,1.13-0.538c0.443,0.608,1,1.163,1.307,1.833C390.174,314.001,391.08,313.617,392.089,312.35z"/>
	<path fill-rule="evenodd" clip-rule="evenodd" fill="#151B17" d="M377.737,346.022c-1.883-2.572-4.213-4.535-7.392-5.745
		C373.1,339.433,377.617,342.96,377.737,346.022z"/>
	<path fill-rule="evenodd" clip-rule="evenodd" fill="#131615" d="M390.657,316.492c0.079-1.487,0.099-1.525,0.963-1.87
		c0.339,2.372,1.556,4.162,3.428,5.622C392.622,320.225,391.816,318.132,390.657,316.492z"/>
	<path fill-rule="evenodd" clip-rule="evenodd" fill="#2F3730" d="M372.319,320.729c0.336-0.155,0.672-0.31,1.007-0.465
		c0.884,1.964,2.786,3.358,3.611,6.052C374.354,324.759,373.457,322.646,372.319,320.729z"/>
	<path fill-rule="evenodd" clip-rule="evenodd" fill="#1B201C" d="M363.065,318.562c-0.049,0.614-0.391,0.797-0.799,0.712
		c-1.744-0.365-3.411-0.9-4.457-2.509c-0.142-0.216-0.529-0.438-0.185-0.731c0.18-0.152,0.428-0.522,0.746-0.176
		c1.167,1.271,2.4,2.354,4.331,2.079C362.963,317.898,363.096,318.347,363.065,318.562z"/>
	<path fill-rule="evenodd" clip-rule="evenodd" fill="#243D34" d="M405.619,340.268c-0.161,0.735-1.112,0.284-1.428,0.994
		c0.842,0,1.608,0,2.375,0c-1.976,0.898-4.038,0.378-6.068,0.365c-0.231-0.403-0.244-0.81-0.003-1.216
		C402.202,340.364,403.911,340.315,405.619,340.268z"/>
	<path fill-rule="evenodd" clip-rule="evenodd" fill="#383C3A" d="M389.125,316.418c0.38,0.025,0.759,0.05,1.139,0.074
		c-0.73,1.857-2.64,2.218-4.08,3.163c-0.218,0.143-0.918-0.008-1.014-0.205c-0.286-0.593,0.311-0.803,0.713-0.946
		C387.134,318.059,388.251,317.436,389.125,316.418z"/>
	<path fill-rule="evenodd" clip-rule="evenodd" fill="#0F231B" d="M400.494,340.411c0.353,0.405,0.271,0.812,0.003,1.216
		c-1.139,0.245-2.351,1.081-3.28-0.398c-0.153-0.427-0.306-0.853-0.459-1.279C398.003,340.103,399.248,340.258,400.494,340.411z"/>
	<path fill-rule="evenodd" clip-rule="evenodd" fill="#FEFEFE" d="M340.907,314.414c-0.145,0.885-0.623,1.052-1.185,1.082
		c-0.572,0.031-1.101-0.14-1.268-0.725c-0.147-0.517,0.207-0.978,0.693-0.929C339.762,313.903,340.352,314.222,340.907,314.414z"/>
	<path fill-rule="evenodd" clip-rule="evenodd" fill="#10120D" d="M370.832,321.563c0.205,0.316,0.292,0.389,0.282,0.443
		c-0.236,1.31-0.586,2.57-1.781,3.36c-0.107,0.07-0.551-0.152-0.548-0.161C369.146,323.865,370.082,322.858,370.832,321.563z"/>
	<path fill-rule="evenodd" clip-rule="evenodd" fill="#FEFEFE" d="M343.036,312.024c-0.414-0.19-0.998-0.335-0.958-1.028
		c0.029-0.502,0.31-0.93,0.842-0.897c0.797,0.047,0.939,0.681,0.909,1.333C343.809,311.843,343.636,312.185,343.036,312.024z"/>
	<path fill-rule="evenodd" clip-rule="evenodd" fill="#060806" d="M340.274,340.785c0.353,0.063,0.228-1.093,0.854-0.333
		c1.107,1.175,0.504,1.982-0.581,2.685c-0.272,0-0.544-0.001-0.815-0.001C339.453,342.245,340.157,341.584,340.274,340.785z"/>
	<path fill-rule="evenodd" clip-rule="evenodd" fill="#FEFEFE" d="M399.068,310.069c0.459,0.035,0.743,0.295,0.783,0.686
		c0.052,0.516-0.254,0.852-0.779,0.871c-0.426,0.015-0.711-0.288-0.756-0.676C398.257,310.428,398.579,310.137,399.068,310.069z"/>
	<path fill-rule="evenodd" clip-rule="evenodd" fill="#0D241D" d="M329.358,320.203c0.067-1.157-1.461-0.343-1.579-1.426
		c1.907-0.566,2.416-2.305,3.019-3.97c0.578-1.599,4.045-3.773,5.578-3.493l0.007,0.004c-0.722,0.803-1.579,1.522-2.132,2.426
		c-0.674,1.104-1.97,0.887-2.778,1.607c1.644,1.695-1.037,2.171-1,3.47c0.016,0.549-0.454,1.146-1.106,1.389L329.358,320.203z"/>
	<path fill-rule="evenodd" clip-rule="evenodd" fill="#0E2620" d="M336.375,311.314c-0.357-0.582-0.715-1.164-1.161-1.89
		c1.103-0.48,2.897,0.27,3.284-1.594c0.008-0.038,0.449-0.073,0.608,0.021c0.474,0.283,0.304,0.664,0.003,0.95
		c-0.895,0.853-1.817,1.679-2.728,2.516L336.375,311.314z"/>
	<path fill-rule="evenodd" clip-rule="evenodd" fill="#102B21" d="M324.582,331.508c0.604-1.717,0.375-3.037,0.31-4.366
		c-0.007-0.138,0.923-0.322,1.42-0.487C326.542,328.698,326.267,329.574,324.582,331.508z"/>
	<path fill-rule="evenodd" clip-rule="evenodd" fill="#102A2B" d="M325.259,360.614c0.244,0.836,1.157,1.664-0.015,2.365
		c-0.283,0.168-0.917,0.305-1.244-0.233C323.096,361.252,325.23,361.597,325.259,360.614z"/>
	<path fill-rule="evenodd" clip-rule="evenodd" fill="#173727" d="M329.366,320.21c0.092,1.221-1.355,1.37-1.607,2.478
		c-0.212-1.672-0.212-1.672,1.599-2.484L329.366,320.21z"/>
	<path fill-rule="evenodd" clip-rule="evenodd" fill="#FEFEFE" d="M406.603,215.905c1.394-1.144,2.787-2.287,4.181-3.431
		c0.324-0.276,0.647-0.552,0.971-0.828c1.37-1.985,3.18-3.322,5.579-3.794c2.518-1.227,5.037-2.454,7.556-3.681
		c8.171-2.963,16.588-4.608,25.293-4.588c1.845,0.004,3.68,0.455,5.543,0.257c20.053,1.286,37.822,7.956,52.371,22.218
		c1.14,0.037,1.143,1.014,1.442,1.744c2.937,3.859,5.905,7.668,8.46,11.832c2.8,4.562,3.921,9.533,4.572,14.623
		c0.838,6.55,0.763,13.151-0.402,19.693c-0.621,3.493-2.129,6.699-3.266,10.025c-0.474,0.537,0.08,1.599-0.948,1.852
		c-2.356,3.212-4.706,6.429-7.078,9.631c-0.432,0.582-0.722,1.46-1.761,1.116c-2.271-1.508-4.594-2.894-7.402-3.137
		c-1.334-0.249-2.666-0.498-4.034-0.41c-5.022-0.672-10.073-0.439-15.115-0.47c-0.466-0.003-0.934-0.019-1.397,0.006
		c-1.595,0.088-3.524-0.253-4.331,1.49c-0.896,1.937-0.196,3.789,1.324,5.284c0.223,0.218,0.439,0.442,0.635,0.684
		c0.866,1.067,1.046,2.077-0.26,2.954c-0.866,0.395-1.793,0.312-2.706,0.328c-3.098,0.058-3.098,0.055-2.811,3.147
		c1.751,3.314,4.524,5.516,7.79,7.191c0.326,0.168,0.75,0.312,0.729,0.794c-0.028,0.701-0.656,0.526-1.043,0.631
		c-2.787,0.754-5.584,1.476-8.377,2.206c-0.293,0.205-0.573,0.442-0.968,0.396c-4.202,1.267-8.546,1.484-12.884,1.752
		c-4.6,0.282-9.102,0.075-13.129-2.54c-0.473-0.307-1.27-0.288-0.819-1.465c1.814-4.73-0.161-8.434-5.222-10.113
		c-2.09-0.694-4.254-0.876-6.446-0.753c-1.349,0.076-2.768,0.762-2.995,1.842c-0.427,2.035-1.757,1.623-3.094,1.956
		c-6.239,1.557-11.726-1.202-17.363-2.914c-1.625-0.494-2.975-1.894-4.452-2.877c-1.277-1.746-3.051-3.046-4.598-4.473
		c-7.667-7.077-10.186-16.147-10.867-26.047c-0.251-3.639-0.588-7.281-0.609-10.923c-0.026-4.68,1.459-9.148,2.545-13.635
		c1.103-4.557,2.77-8.977,4.144-13.47c0.563-1.838,1.974-3.112,2.93-4.686C400.703,221.868,403.672,218.904,406.603,215.905z"/>
	<path fill-rule="evenodd" clip-rule="evenodd" fill="#FEFEFE" d="M488.463,308.031c-5.216,1.308-11.835-1.755-14.098-6.523
		c-0.544-0.357-1.402-0.503-1.077-1.473c0.269-0.799,0.986-0.613,1.575-0.621c0.774-0.01,1.55,0,2.323-0.001
		c1.24,0.059,2.111-0.499,2.521-1.652c0.389-1.091-0.384-1.73-1.08-2.363c-0.697-0.632-1.324-1.31-1.663-2.213
		c-0.929-2.474-0.086-4.233,2.532-4.536c4.945-0.571,9.922-0.249,14.886-0.145c0.771,0.016,1.545,0.141,2.32,0.139
		c1.571,0.297,3.158,0.488,4.744,0.686c2.585,0.615,5.315,0.912,7.075,3.295c0.128,0.82,0.179,1.374-0.656,2.148
		c-5.076,4.703-10.675,8.617-16.792,11.816C490.193,307.051,489.333,307.551,488.463,308.031z"/>
	<path fill-rule="evenodd" clip-rule="evenodd" fill="#081C24" d="M517.955,281.827c0.316-0.617,0.632-1.234,0.948-1.852
		c0.359,1.202,1.185,0.425,1.189,0.063c0.017-1.356,1.257-1.967,1.606-3.064c0.175-0.554,0.339-1.104,1.008-1.059
		c0.581,0.04,0.987,0.51,1.148,1.031c0.174,0.564-0.152,1.066-0.606,1.387c-0.216,0.151-0.567,0.111-0.858,0.158
		c0.658,3.664-4.427,3.156-4.138,6.592C516.469,283.718,519.091,282.845,517.955,281.827z"/>
	<path fill-rule="evenodd" clip-rule="evenodd" fill="#202521" d="M508.522,292.623c-2.123-1.402-4.499-2.195-6.922-2.875
		c-0.268-0.512,0.169-0.632,0.463-0.832c2.707,0.532,5.408,1.078,7.053,3.659C508.919,292.591,508.721,292.607,508.522,292.623z"/>
	<path fill-rule="evenodd" clip-rule="evenodd" fill="#0A2624" d="M509.539,223.803c-0.479-0.582-0.961-1.163-1.442-1.744
		c0.007-0.389,0.063-0.784,0.007-1.163c-0.104-0.684-0.44-1.621,0.423-1.795c1.055-0.211,0.585,0.931,0.844,1.452
		c0.286,0.577,0.011,1.275,1.095,1.679C511.252,222.527,509.521,223.033,509.539,223.803z"/>
	<path fill-rule="evenodd" clip-rule="evenodd" fill="#163C3D" d="M522.965,272.334c0.094-0.718,0.061-1.213,0.23-1.625
		c0.384-0.927,1.251-0.073,1.854-0.403c0.202-0.111,0.675,0.177,0.588,0.539c-0.154,0.65-0.766,0.61-1.293,0.736
		C523.927,271.681,523.562,271.996,522.965,272.334z"/>
	<path fill-rule="evenodd" clip-rule="evenodd" fill="#1E3C3C" d="M520.777,234.769c-0.904-0.175-1.807-0.35-2.709-0.524
		C519.091,233.656,520.089,233.233,520.777,234.769z"/>
	<path fill-rule="evenodd" clip-rule="evenodd" fill="#38514D" d="M513.581,289.777c0.679-1.512,1.746-1.164,3.02-0.663
		C515.718,290.483,514.354,288.722,513.581,289.777z"/>
	<path fill-rule="evenodd" clip-rule="evenodd" fill="#FDFDFD" d="M436.506,311.791c-2.642-0.007-3.944-1.135-3.799-3.537
		c0.108-1.771,0.223-3.989,2.428-4.257c3.033-0.369,5.689,2.014,5.655,4.523C440.756,310.908,439.591,311.799,436.506,311.791z"/>
	<path fill-rule="evenodd" clip-rule="evenodd" fill="#2A2F26" d="M477.268,299.98c-0.835,0.015-1.673,0.002-2.505,0.06
		c-0.458,0.031-1.13-0.481-1.327,0.342c-0.168,0.694,0.8,0.594,0.93,1.126c-0.652,0.025-1.113,0.321-1.347,0.944
		c-0.977-0.786-1.182-1.825-0.741-2.914c0.501-1.237,1.684-0.852,2.646-0.864c1.085-0.017,2.171,0.05,3.257,0.08
		C478.346,299.512,477.79,299.732,477.268,299.98z"/>
	<path fill-rule="evenodd" clip-rule="evenodd" fill="#274A49" d="M471.15,313.671c0.229-0.361,0.559-0.479,0.968-0.396
		c-0.176,1.028,1.185,3.275-1.818,2.044c-0.676-0.276-1.828,1.051-3.114,0.52C468.38,314.762,470.512,315.531,471.15,313.671z"/>
	<path fill-rule="evenodd" clip-rule="evenodd" fill="#0C2E30" d="M415.472,342.196c1.249,0.753,1.535,0.635,1.848-0.613
		c0.523-2.083,0.239-4.309,1.102-6.491c0.568,2.703-0.704,9.684-2.533,14.06c-0.688-0.906-0.425-1.844-0.342-2.701
		c0.078-0.813,0.605-1.738-0.995-1.19c-0.431,0.146-0.501-0.531-0.352-0.878c0.334-0.772,0.563-1.623,1.28-2.177L415.472,342.196z"
		/>
	<path fill-rule="evenodd" clip-rule="evenodd" fill="#033325" d="M413.177,372.657c0.406-1.854,0.559-3.25,1.594-4.301
		c0.366-0.372,0.066-1.411,1.109-1.104c0.909,0.268,1.162,1.049,1.17,1.809c0.017,1.636-0.562,3.145-1.375,4.768
		C414.92,373.313,416.075,369.661,413.177,372.657z"/>
	<path fill-rule="evenodd" clip-rule="evenodd" fill="#1E3237" d="M415.48,342.205c0.003-2.09-0.055-4.185,0.044-6.271
		c0.033-0.694,0.232-1.789,1.274-1.528c0.954,0.236,0.097,1.034,0.088,1.566c-0.026,1.675-0.934,3.251-0.528,5.001
		c0.131,0.568-0.349,0.987-0.887,1.223L415.48,342.205z"/>
	<path fill-rule="evenodd" clip-rule="evenodd" fill="#254447" d="M388.551,244.894c-0.91-1.578,0.005-2.924,0.449-4.669
		C390.21,242.181,388.583,243.436,388.551,244.894z"/>
	<path fill-rule="evenodd" clip-rule="evenodd" fill="#0A232B" d="M337.528,379.1c1.892-1.483,3.197-0.645,4.398,0.717
		c0.531,0.603,0.158,1.151-0.321,1.312C339.679,381.769,338.71,380.343,337.528,379.1z"/>
	<path fill-rule="evenodd" clip-rule="evenodd" fill="#0A232B" d="M343.204,381.831c0.493,0.272,1.09,0.479,1.515,0.873
		c0.546,0.507,1.726,0.617,1.635,1.425c-0.141,1.245-1.478,0.114-2.096,0.729c-0.336,0.334-0.917,0.162-0.667-0.289
		C344.201,383.47,342.248,382.938,343.204,381.831z"/>
	<path fill-rule="evenodd" clip-rule="evenodd" fill="#21442A" d="M338.554,375.353c-1.549,1.003-2.551,1.447-3.657,0.778
		c-0.269-0.163-0.476-0.72-0.127-1.04C335.909,374.047,336.849,375.176,338.554,375.353z"/>
	<path fill-rule="evenodd" clip-rule="evenodd" fill="#EEF4F4" d="M430.366,325.39c0.021,0.456,0.041,0.91,0.06,1.365
		c-1.885,1.169-2.879,0.056-4.165-1.663C427.929,325.212,429.147,325.301,430.366,325.39z"/>
	<path fill-rule="evenodd" clip-rule="evenodd" fill="#082C2C" d="M422.725,325.569c4.328-0.778,1.458,1.91,2.309,2.676
		C424.125,327.548,424.44,326.111,422.725,325.569z"/>
	<path fill-rule="evenodd" clip-rule="evenodd" fill="#081211" d="M417.334,207.853c-1.86,1.264-3.719,2.529-5.579,3.794
		c-0.61-0.771-0.728-1.6,0.207-2.104C413.63,208.642,415.102,206.995,417.334,207.853z"/>
	<path fill-rule="evenodd" clip-rule="evenodd" fill="#FEFEFE" d="M340.547,343.137c0.431-0.844,1.098-1.637,0.581-2.685
		c1.365-0.43,2.782-0.291,4.118-0.066c3.511,0.588,7.043-0.045,10.538,0.34c2.571,0.285,5.004,1.15,7.279,2.414
		c0.463,0.275,0.901,0.609,1.394,0.813c1.193,0.498,1.095,0.889,0.199,1.774c-5.75,5.682-12.399,5.732-19.517,3.351
		C341.621,347.902,340.753,346.848,340.547,343.137z"/>
	<path fill-rule="evenodd" clip-rule="evenodd" fill="#F8F9F9" d="M383.177,357.854c0.661,0.149,1.094,0.3,1.537,0.339
		c2.686,0.236,4.864,1.249,6.244,2.936C387.724,362.468,384.119,361.04,383.177,357.854z"/>
	<path fill-rule="evenodd" clip-rule="evenodd" fill="#FCFDFD" d="M393.069,357.598c1.189,0.008,2.505-0.348,2.364,1.43
		c-0.097,1.226-0.445,2.394-1.951,2.462c-1.683,0.076-2.209-1.257-2.446-2.526C390.663,356.963,392.419,357.952,393.069,357.598z"/>
	<path fill-rule="evenodd" clip-rule="evenodd" fill="#050906" d="M447.289,268.762c1.578,0.928,4.032,0.528,4.517,3.162
		c0.113,0.609,1.005,0.373,1.647,0.205c2.079-0.542,3.522-2.078,5.203-3.229c1.963-1.346,3.781-2.867,6.206-3.434
		c1.63-0.381,3.468-3.902,2.806-5.308c-0.459-0.975-0.093-1.541,0.581-1.947c0.647-0.39,1.391-0.626,1.679,0.601
		c0.137,0.586,0.788,0.138,1.211,0.077c0.389-0.279,0.556,0.004,0.726,0.282c0.484,1.192,1.341,2.179,1.854,3.357
		c0.312,0.717,0.874,1.001,1.648,0.853c0.47,0.017,0.821,0.207,0.975,0.677c-0.836,1.042-2.099,1.934-0.886,3.887
		c-1.976-0.896-3.788-0.475-5.32-1.449c-0.723-0.458-1.217,0.179-1.391,0.76c-1.193,4.01-3.783,6.845-7.364,8.834
		c-1.67,0.927-3.318,1.844-5.327,0.508c-1.016-0.675-2.288,0.557-2.184,1.948c-0.055,0.31-0.233,0.507-0.536,0.592
		c-0.54,0.068-0.5-1.105-1.441-0.486c-2.183,1.437-4.449,1.17-6.593-0.509c0.149-0.496,0.521-0.741,0.988-0.877
		c1.011-0.149,1.977,0.33,2.989,0.22c1.512-0.163,2.374-1.411,1.525-2.564c-1.054-1.434-1.535-3.225-2.894-4.442
		C447.464,269.994,446.771,269.594,447.289,268.762z"/>
	<path fill-rule="evenodd" clip-rule="evenodd" fill="#090C0A" d="M476.341,264.06c-0.29-0.159-0.582-0.318-0.874-0.477
		c-0.346-0.973,0.538-1.355,0.993-1.863c0.863-0.961,1.311-1.949,0.562-3.104c-0.851-1.313-1.755-0.117-2.624,0.069
		c-0.923,0.197-1.684,1.145-2.769,0.591c-0.163-0.128-0.326-0.256-0.49-0.385c2.101-1.39,3.969-3.233,6.86-2.92
		c0.562,0.06,1.295-0.775,1.831-1.314c4.064-4.092,5.181-11.769,2.514-16.832c-0.484-0.918-1.323-1.166-2.198-1.462
		c-2.683-0.91-5.358-0.281-8.038-0.025c-0.164-0.195-0.215-0.417-0.152-0.664c4.268-3.246,10.96-1.264,12.683,3.676
		c2.125,6.094,0.901,11.429-3.333,16.197c-0.679,0.766-1.596,1.462-1.622,2.717c1.169,0.19,1.625-1.021,2.573-1.039
		c0.796-0.039,1.388,0.45,2.043,0.778c0.272,0.151,0.602,0.28,0.762,0.532c1.537,2.424,3.83,3.167,6.572,3.244
		c1.997,0.055,3.898,0.536,4.494,2.937c0.229,0.924,1.103,0.937,1.885,1.077c2.593,0.466,3.093,1.475,2.119,4.137
		c-1.041,0.838-1.46,0.486-1.418-0.745c0.097-0.999,0.209-1.896-1.367-1.506c-1.772,0.438-3.003-0.083-3.188-2.186
		c-0.229-2.614-2.663-1.668-3.661-1.541c-3.118,0.395-4.816-1.322-6.328-3.399c-1.043-1.434-1.671-1.322-2.887-0.188
		C479.785,261.757,478.002,262.841,476.341,264.06z"/>
	<path fill-rule="evenodd" clip-rule="evenodd" fill="#FEFEFE" d="M398.252,274.772c-0.952,0.016-1.53-0.464-1.47-1.403
		c0.104-1.619,0.292-3.236,0.517-4.844c0.122-0.863,0.92-0.644,1.497-0.764c0.875-0.182,1.581-0.472,1.744-1.564
		c0.137-0.913,0.148-1.569-0.665-2.247c-2.756-2.297-3.509-5.255-2.788-8.738c0.264-1.275,0.099-2.639,0.137-3.961
		c0.041-1.415,0.778-2.23,2.188-2.151c1.536,0.085,3.527-1.111,4.306,1.417c0.981,3.187,1.436,6.471,1.925,9.752
		c-1.554,0.941-2.253-0.174-2.819-1.275c-0.926-1.803-1.212-3.762-1.088-5.779c-0.005-0.351,0.001-0.704,0.002-1.051
		c-0.06-0.412,0.081-1.049-0.485-1.079c-0.981-0.051-1.034,0.85-1.25,1.532c-0.49,1.599-0.368,3.232-0.233,4.85
		c0.284,3.408,3.063,4.584,5.51,6.049c0.677,0.406,1.887,0.35,1.76,1.504c-0.104,0.941-1.034,1.292-1.837,1.597
		c-1.688,0.642-3.299,1.377-4.263,3.028C399.593,271.116,398.478,272.711,398.252,274.772z"/>
	<path fill-rule="evenodd" clip-rule="evenodd" fill="#0A0F0B" d="M402.258,252.877c0.115,2.014,0.314,4.01,1.1,5.901
		c0.428,1.031,1.051,1.718,2.286,1.491c1.46,0.58,2.921,1.158,4.873,1.933c-0.583-1.299-0.918-2.155-1.343-2.964
		c-0.784-1.499,0.059-2.027,1.326-2.123c2.097-0.16,4.133,0.067,6.16,0.818c3.049,1.129,4.128,0.206,3.902-3.042
		c-0.025-0.361-0.533-0.582-0.229-1.039c3.102-4.68-0.173-8.611-1.544-12.754c-0.126-0.38-0.586-0.764-0.98-0.926
		c-3.137-1.283-5.306-4.194-8.643-5.12c-0.642-0.178-1.196-0.39-1.215-1.169c-0.006-0.213,0.009-0.476,0.125-0.634
		c0.217-0.293,0.514-0.262,0.776-0.004c1.394,1.374,3.426,1.229,5.027,2.112c0.357,0.198,0.792,0.264,1.085-0.047
		c0.335-0.356-0.003-0.692-0.183-1.024c-0.587-1.084-1.226-2.154-1.243-3.445c0.482-0.28,0.819-0.004,1.151,0.297
		c0.35,0.534,0.667,1.093,1.073,1.593c0.34,0.952,1.17,1.629,1.461,2.609c-0.787,1.542-0.283,2.467,1.298,3.077
		c0.864,0.333,1.614,1.011,2.034,1.862c2.013,4.083,3.734,8.234,2.452,12.949c-0.365,1.35-0.667,2.715-0.97,4.081
		c-0.584,2.634-2.25,3.576-4.867,2.797c-1.417-0.421-2.804-0.942-4.297-1.013c-0.443-0.021-0.925-0.166-1.412,0.298
		c0.427,1.165,1.842,2.435,0.354,3.692c-1.298,1.097-2.753,0.599-4.163-0.028c-0.988-0.439-2.093-0.606-2.987-1.274
		c-0.688-0.507-1.494-0.829-2.161-1.372c-1.43-1.502-1.793-3.346-1.705-5.334c0.026-0.735-0.071-1.5,0.278-2.177
		C401.419,252.233,401.85,251.95,402.258,252.877z"/>
	<path fill-rule="evenodd" clip-rule="evenodd" fill="#0F1510" d="M434.235,226.704c-0.945,4.198-2.508,8.242-3.092,12.537
		c-0.152,1.125,0.123,2.16,0.217,3.235c0.043,0.484,0.255,1.001,0.784,0.971c0.583-0.035,0.54-0.648,0.63-1.096
		c0.644-3.178,1.276-6.353,2.258-9.458c0.444-1.41,1.229-2.491,2.294-3.394c0.436-0.368,1.148-0.988,1.631-0.556
		s0.977,1.106,0.69,2.027c-0.702,2.265-1.199,4.595-1.947,6.842c-0.657,1.98-0.969,3.894-0.075,5.861
		c0.911,0.121,1.714-1.368,2.436-0.55c0.712,0.807,0.353,2.055-0.109,3.077c-0.854,1.889-1.71,3.777-2.565,5.666
		c-0.444,0.03-0.638-0.26-0.781-0.611c-0.293-1.511,0.714-2.645,1.073-3.825c-0.487,0.775-0.726,1.818-1.209,2.749
		c-0.302,0.58-0.74,1.073-1.461,0.896c-0.77-0.188-0.993-1.007-0.729-1.493c1.852-3.414,0.47-7.185,1.282-10.695
		c0.508-2.196,1.555-4.238,1.977-7.064c-1.62,3.406-1.993,6.573-2.656,9.652c-0.213,0.997-0.428,1.981-0.973,2.852
		c-1.11,1.779-2.735,1.792-3.822-0.023c-0.867-1.447-1.163-3.146-0.928-4.735c0.623-4.226,1.592-8.395,3.014-12.43
		c0.313-0.886,0.585-2.248,2.161-1.858C434.509,225.77,434.454,226.242,434.235,226.704z"/>
	<path fill-rule="evenodd" clip-rule="evenodd" fill="#111813" d="M436.904,251.222c0.16,0.214,0.321,0.428,0.481,0.643
		c-0.515,1.604-0.995,3.22-1.552,4.81c-0.419,1.198-0.009,2.228,0.85,2.886c1.397,1.073,2.117,2.583,3.128,3.914
		c0.796,1.049,2.12,1.785,3.338,2.406c1.527,0.78,2.812,1.847,4.14,2.88c-0.057,0.714,0.688,0.887,0.942,1.393
		c-1.049,0.864-1.886,0.166-2.708-0.4c-1.044-0.718-1.68-0.338-2.23,0.656c-0.999,1.804-0.535,3.669,1.263,5.112
		c0.722,0.578,1.967,0.749,1.795,2.101c-0.35,0.174-0.702,0.347-1.052,0.521c-2.167-0.994-3.811-2.51-4.771-4.726
		c-0.207-0.48-0.353-1.012-0.887-1.296c-1.86-0.987-3.366-2.359-4.494-4.148c-0.689-1.094-1.506-1.085-2.374-0.19
		c-0.543,0.187-0.873-0.087-1.13-0.518c0.483-1.93,1.115-2.316,2.854-1.716c1.771,0.612,2.813,2.145,4.167,3.288
		c0.645,0.544,1.216,2.031,2.379,0.655c1.028-1.219,0.874-2.703-0.506-3.346c-2.769-1.288-3.749-4.206-5.829-6.144
		C432.828,258.252,434.508,252.748,436.904,251.222z"/>
	<path fill-rule="evenodd" clip-rule="evenodd" fill="#FEFEFE" d="M427.632,221.461c-1.236-1.194-1.075-2.649-0.718-4.107
		c0.605-2.46,2.78-1.757,4.346-1.91c1.888-0.184,3.613-0.038,3.507-2.744c-0.034-0.881,0.808-1.488,1.776-1.513
		c1.503-0.039,2.299-0.751,2.346-2.267c0.03-1.001,0.742-1.089,1.469-1.013c1.138,0.12,2.433,0.117,3.038,1.287
		c0.396,0.765-0.249,1.274-0.96,1.563c-1.705,0.051-2.392,1.612-3.577,2.433c-0.698,0.483-1.244,1.175-1.945,1.673
		c-0.873,0.756-1.63,1.619-2.344,2.524c-1.005,1.745-1.568,3.688-2.484,5.47c-0.366,0.713-0.556,1.698-1.745,1.435
		c-1.411-1.555-0.457-3.96-2.019-5.662c-0.036-0.119-0.358,0.368-0.11,0.178C429,219.906,428.695,220.766,427.632,221.461z"/>
	<path fill-rule="evenodd" clip-rule="evenodd" fill="#131C15" d="M508.107,241.062c-4.587,3.269-8.674,7.126-12.808,10.925
		c-0.67,0.616-1.266,1.354-1.739,2.132c-0.645,1.057-1.46,1.782-2.691,1.99c-0.873,0.147-1.719,0.29-1.566,1.513
		c0.145,1.173,1.095,1.15,1.892,1.242c1.294,0.15,2.566,0.169,3.874,0.53c1.733,0.479,2.432,1.982,3.703,2.875
		c0.387,0.409,0.402,0.857,0.146,1.335c-0.877,0.661-1.716,0.343-2.273-0.354c-1.446-1.808-3.339-2.346-5.548-2.484
		c-1.816-0.114-3.261-0.963-3.72-2.971c-0.33-1.443,0.071-2.557,1.465-3.009c2.79-0.904,4.16-3.326,5.955-5.298
		c0.413-0.798,1.235-1.103,1.912-1.587c1.18-0.163,2.119-0.662,2.563-1.847c0.212-0.492,0.428-0.98,0.821-1.362
		c1.855-1.289,4.258-2.029,4.732-4.712C506.258,239.311,507.555,239.059,508.107,241.062z"/>
	<path fill-rule="evenodd" clip-rule="evenodd" fill="#040604" d="M453.333,279.141c0.18-0.198,0.358-0.395,0.536-0.592
		c1.151,0.842,2.438,1.316,3.864,1.27c1.167-0.039,1.42,0.532,0.778,1.326c-0.96,1.19-1.199,2.644-1.697,3.989
		c-0.686,1.854-0.276,3.348,1.925,3.916c0.863-0.984-0.31-1.842-0.176-2.787c0.082-0.575,0.122-1.145,0.713-1.336
		c0.664-0.216,0.921,0.297,1.146,0.834c0.738,1.757,1.59,3.471,2.23,5.263c0.307,0.859,0.386,2.022-1.166,1.754
		c-1.229-0.212-2.408,0.677-3.657,0.019c-0.706-0.373-1.934-0.253-2.007-1.183c-0.08-1.015,1.358-0.373,1.8-1.048
		c-0.039-0.147-0.033-0.373-0.124-0.425c-3.332-1.882-3.383-1.898-2.088-5.429c0.646-1.759,1.604-3.424-1.124-4.296
		C453.875,280.284,453.646,279.58,453.333,279.141z"/>
	<path fill-rule="evenodd" clip-rule="evenodd" fill="#18201A" d="M436.493,287.076c-1.78-0.091-0.56,1.536-1.231,2.161
		c-0.781,0.728-0.089,2.76-1.169,2.695c-0.965-0.059-0.54-1.832-0.646-2.858c-0.249-2.459-1.455-4.507-2.781-6.489
		c-1.566-2.342-2.844-4.764-2.28-7.699c0.273-1.418-0.558-1.173-1.277-0.918c-1.229,0.437-2.414,0.998-3.618,1.507
		c-0.453-0.275-0.671-0.688-0.7-1.208c1.545-1.718,3.827-2.128,5.739-3.195c0.731-0.409,1.315,0.117,1.663,0.813
		c0.32,0.641,0.475,1.358,0.358,2.029c-0.729,4.202,1.64,7.392,3.44,10.771c0.196,0.371,0.527,0.543,0.92,0.63
		C435.754,285.618,436.771,285.77,436.493,287.076z"/>
	<path fill-rule="evenodd" clip-rule="evenodd" fill="#0A0F0B" d="M416.454,232.097c5.117,3.01,7.707,7.653,8.655,13.366
		c0.073,0.446,0.214,0.908,0.441,1.295c0.301,0.514,0.64,1.168,1.423,0.814c0.698-0.315,0.282-0.876,0.249-1.389
		c-0.138-2.109-1.498-3.859-1.689-5.941c-0.113-1.23-0.197-2.463-0.293-3.694c-0.144-0.856,0.251-1.177,1.07-1.075
		c0.949,3.437,1.651,6.938,2.635,10.37c0.448,1.566-0.305,2.82-1.766,3.402c-1.476,0.586-2.52-0.367-3.391-1.43
		c-0.455-0.554-0.613-1.265-0.738-1.953c-0.775-4.257-2.451-8.029-5.804-10.912c-0.561-0.657-1.345-1.195-1.192-2.232
		C416.113,232.463,416.247,232.257,416.454,232.097z"/>
	<path fill-rule="evenodd" clip-rule="evenodd" fill="#101611" d="M473.519,232.804c0.248-0.179,0.474-0.461,0.748-0.523
		c3.287-0.736,3.352-0.834,2.208-4.117c-0.278-0.801-0.724-1.563-0.883-2.383c-0.115-0.597-1.172-1.264-0.245-1.782
		c0.704-0.394,1.141,0.531,1.65,0.967c1.806,1.539,2.851,3.609,4.069,5.578c1.126,1.821,2.356,3.589,4.798,3.921
		c1.203,0.164,1.703-0.062,1.701-1.382c-0.003-1.061,0.32-2.121,0.5-3.181c0.58-0.154,0.933,0.143,1.207,0.601
		c0.338,0.813,0.287,1.674,0.28,2.525c-0.03,3.343-1.647,4.461-4.837,3.264c-3.317-1.246-5.062-3.95-6.38-7.235
		c0.104,1.008,0.396,1.812,0.379,2.665c-0.025,1.202-0.656,1.842-1.772,2.12c-0.908,0.227-1.81,0.471-2.747,0.138
		C473.707,233.739,473.417,233.384,473.519,232.804z"/>
	<path fill-rule="evenodd" clip-rule="evenodd" fill="#121A15" d="M496.96,248.152c-0.643,0.465-1.285,0.931-1.929,1.395
		c-0.774,1.699-2.111,1.578-3.5,1c-1.454-0.604-1.803-1.819-1.518-3.262c0.329-1.668,1.395-2.939,2.476-4.14
		c2.302-2.553,3.668-5.736,5.802-8.398c0.352-0.439,0.486-0.976,0.037-1.481c-1.057-0.856-0.305-1.197,0.436-1.542
		c0.059-0.051,0.144-0.159,0.17-0.146c0.914,0.446,2.428-0.352,2.806,0.702c0.477,1.327-0.979,2.097-1.688,3.095
		c-2.662,3.746-5.235,7.558-7.744,11.409c-0.289,0.443-0.945,1.183-0.3,1.889c0.633,0.691,1.425,0.393,2.17,0.226
		c2.253-0.503,3.103-2.647,4.63-3.999c0.672-0.595,1.213-1.338,1.812-2.014c0.299,0.23,0.393,0.547,0.388,0.907
		c-0.033,0.529-0.396,0.797-0.809,1.026c-0.159,0.4-0.317,0.8-0.476,1.2C498.977,246.957,498.191,247.843,496.96,248.152z"/>
	<path fill-rule="evenodd" clip-rule="evenodd" fill="#142119" d="M436.493,287.076c-0.189-0.941-1.116-1.035-1.722-1.499
		c-0.949-1.18-1.976-2.19-1.46-4.066c0.335-1.222-0.668-2.498-1.118-3.732c-0.961-2.635-2.114-5.225-1.864-8.132
		c0.084-0.981-0.04-2.117,1.344-2.383c0.365,0.173,0.732,0.347,1.1,0.521c-1.354,2.205-0.354,4.413,0.238,6.48
		c1.088,3.793,2.442,7.524,4.468,10.95c0.962,1.626,0.992,3.377,0.934,5.164c-0.013,0.408-0.129,0.782-0.625,0.802
		c-0.442,0.017-0.729-0.217-0.797-0.664C436.819,289.371,436.658,288.223,436.493,287.076z"/>
	<path fill-rule="evenodd" clip-rule="evenodd" fill="#191D19" d="M477.268,299.98c0.305-0.409,0.609-0.817,0.913-1.227
		c1.282-0.859,1.574-1.587-0.051-2.501c-1.232-0.695-1.879-2.06-2.255-3.345c-0.854-2.925,0.643-4.896,3.901-4.939
		c6.019-0.081,12.052-0.332,18.053,0.435c0.037,0.928-0.555,0.629-1.042,0.535c-4.802-0.031-9.603-0.067-14.404-0.089
		c-0.85-0.004-1.691-0.052-2.538,0.233c-1.039,0.349-2.438,0.038-2.606,1.729c-0.165,1.647,0.092,3.139,1.595,4.064
		c1.061,0.654,2.052,1.31,1.596,2.721C479.951,299.072,479.103,300.224,477.268,299.98z"/>
	<path fill-rule="evenodd" clip-rule="evenodd" fill="#22362B" d="M417.303,286.124c-2.098,0.286-1.986,2.015-1.942,3.384
		c0.099,3.059-0.602,6.116,0.043,9.174c0.137,0.652,0.042,1.591-0.649,1.791c-0.81,0.233-1.153-0.855-1.348-1.31
		c-0.566-1.313-1.292-2.633-1.216-4.161c0.027-0.542,0.034-1.176-0.851-0.8c-0.355-0.721,0.442-1.612-0.34-2.271
		c0.089-1.206,0.214-2.38,1.934-2.04c1.203,0.732,0.485,1.909,0.645,2.633c-0.073-0.635,0.369-1.527-0.04-2.406
		c-0.4-2.673,1.082-4.594,2.594-6.501c0.513-0.287,0,1.29,0.991,0.485c0.606-0.492,1.036,0.303,1.242,0.917
		C418.714,286.06,418.173,286.25,417.303,286.124z"/>
	<path fill-rule="evenodd" clip-rule="evenodd" fill="#151D1B" d="M417.303,286.124c0.019-0.529,1.081-0.091,0.793-0.785
		c-0.164-0.395-0.206-1.233-1.035-0.872c-1.168,0.51-0.375-0.575-0.658-0.774c-0.288-0.288-0.538-0.686-0.397-1.034
		c1.299-3.219,2.55-6.486,5.773-8.379c0.348-0.204,0.731-0.221,1.088,0.026c0.474,0.247,0.567,0.697,0.623,1.168
		c-5.443,2.646-6.556,10.17-2.065,14.126c0.55,0.484,1.154,1.328,0.904,1.653c-0.6,0.78-1.512,0.051-1.967-0.349
		C418.911,289.625,417.799,288.052,417.303,286.124z"/>
	<path fill-rule="evenodd" clip-rule="evenodd" fill="#18221A" d="M498.764,231.725c0.057,0.339-1.354,0.832,0.107,1.023
		c-2.383,1.833-3.091,4.643-4.244,7.203c-0.535,1.193-1.162,2.36-2.06,3.341c-0.888,0.973-1.937,1.243-3.131,0.612
		c-1.141-0.602-1.109-1.636-0.766-2.623c0.886-2.534,1.062-5.285,2.361-7.69c0.356-0.213,0.71-0.23,1.053,0.03
		c0.206,2.362-0.333,5.053-1.763,8.735c1.3,0.391,1.747-0.401,2.146-1.391c0.969-2.404,1.903-4.818,2.521-7.342
		c-0.06-1.82,1.512-1.42,2.489-1.829C497.906,231.772,498.336,231.749,498.764,231.725z"/>
	<path fill-rule="evenodd" clip-rule="evenodd" fill="#202C28" d="M398.252,274.772c-1.104-2.51,0.936-3.675,2.212-5.168
		c0.353,0.1,0.578,0.322,0.665,0.681c0.014,0.458-0.263,0.876-0.317,1.666c1.918-1.542,3.954-2.155,5.687-3.779
		c1.811-1.698,4.147-3.091,6.212-4.675c0.169-0.129,0.442,0.017,0.598,0.217c0.139,0.341,0.081,0.656-0.132,0.948
		C409.286,269.631,404.336,273.039,398.252,274.772z"/>
	<path fill-rule="evenodd" clip-rule="evenodd" fill="#212A24" d="M408.85,291.918c-0.034-1.692,0.653-3.208,1.532-4.525
		c2.287-3.422,3.44-7.289,4.757-11.107c0.293-0.85,0.46-1.8,1.231-2.42c0.332-0.321,0.594-0.894,1.169-0.315
		c0.271,0.518,0.261,1.071,0.049,1.579c-1.755,4.202-2.459,8.834-5.19,12.638c-0.821,1.144-1.331,2.437-1.703,3.798
		c-0.238,0.869-0.387,1.876-1.563,2.069C408.412,293.165,408.749,292.522,408.85,291.918z"/>
	<path fill-rule="evenodd" clip-rule="evenodd" fill="#151D16" d="M417.381,273.422c-0.337,0.148-0.673,0.296-1.011,0.444
		c0.418-2.448,0.846-4.771,4.038-5.213c1.332-0.186,1.466-1.49,0.864-2.594c-1.214-2.228-4.917-3.206-7.117-1.947
		c-0.325,0.185-0.653,0.366-0.979,0.55c-0.028-0.393-0.058-0.786-0.087-1.179c0.886-1.979,3.136-2.828,5.133-1.829
		c1.46,0.73,2.816,1.669,3.981,2.821c1.422,1.404,1.688,3.328,0.308,4.564C420.842,270.535,419.002,271.854,417.381,273.422z"/>
	<path fill-rule="evenodd" clip-rule="evenodd" fill="#222824" d="M436.539,214.458c1.502-1.383,3.083-2.689,4.479-4.172
		c1.036-1.099,1.091-0.106,1.417,0.47c-3.386,4.98-4.6,11.078-8.2,15.947c-0.022-0.524-0.045-1.048-0.068-1.573
		c-0.528-0.77,0.092-1.301,0.406-1.884c1.573-2.92,2.551-6.103,4.153-9.008c0.06-0.313-0.464-0.202-0.164-0.114
		c0.133,0.039,0.12,0.1,0.075,0.223c-0.211,0.587-0.664,0.821-1.239,0.901C436.926,215.187,436.448,215.129,436.539,214.458z"/>
	<path fill-rule="evenodd" clip-rule="evenodd" fill="#34443A" d="M500.69,244.008c-0.023-0.374-0.048-0.748-0.072-1.122
		c1.175-2.589,3.331-4.382,5.191-6.415c0.66,0.158,1.751-0.562,1.785,0.873c-0.088,0.764,0.039,1.303,1.007,0.958
		c0.425,0.205,0.771,0.447,0.467,0.994c-0.614,0.429-0.225,1.403-0.961,1.765c-0.8-1.276-2.011-1.037-3.203-0.869
		c-1.058,0.561-1.37,1.777-2.221,2.523C502.081,243.245,501.719,244.136,500.69,244.008z"/>
	<path fill-rule="evenodd" clip-rule="evenodd" fill="#1D231F" d="M426.16,235.508c-0.307,0.347-0.614,0.693-0.92,1.04
		c-0.468-0.409-0.541-1.018-0.404-1.497c1.146-4.017,1.217-8.274,2.744-12.203c0.844-0.913,1.635-1.416,2.148,0.272
		c-1.104,1.52-1.157,3.34-1.447,5.093C427.868,230.731,427.428,233.24,426.16,235.508z"/>
	<path fill-rule="evenodd" clip-rule="evenodd" fill="#151B18" d="M503.647,271.008c1.54,3.214,2.46,6.849,5.937,8.751
		c0.373,0.205,0.636,0.56,0.389,0.939c-0.118,0.18-0.557,0.175-0.854,0.209c-0.702,0.079-1.154-0.879-1.942-0.481
		c-0.114-0.031-0.229-0.062-0.345-0.091c-2.045-2.581-4.271-5.074-4.255-8.671C502.789,271.21,502.97,270.701,503.647,271.008z"/>
	<path fill-rule="evenodd" clip-rule="evenodd" fill="#050B07" d="M467.164,257.241c-2.402,2.812-4.758,1.013-7.011,0.782
		c-0.581-0.06-0.928-0.554-0.6-0.955c0.491-0.598,0.884-1.636,1.872-1.417C463.257,256.059,465.051,256.645,467.164,257.241z"/>
	<path fill-rule="evenodd" clip-rule="evenodd" fill="#2A3C2F" d="M489.065,230.396c-0.334-0.165-0.666-0.33-1-0.494
		c0.589-1.806,0.884-3.728,2.096-5.288c0.229-0.297,0.071-1.119,0.813-0.707c0.431,0.24,0.852,0.576,0.563,1.298
		c-0.367,0.912-0.656,1.882-0.787,2.852c-0.128,0.965,0.334,1.079,0.998,0.404c1.33,1.377-0.62,2.249-0.529,3.437
		C489.928,232.217,489.758,230.933,489.065,230.396z"/>
	<path fill-rule="evenodd" clip-rule="evenodd" fill="#1F211D" d="M503.647,271.008c-0.495,0.191-0.631,0.613-0.698,1.081
		c-1.375-0.385-1.159-1.715-1.493-2.661c-0.723-2.037-0.882-4.312-2.679-5.854c-0.002-0.435-0.004-0.871-0.006-1.305
		c2.528,0.047,3.889,1.12,3.932,3.862C502.729,267.762,503.313,269.382,503.647,271.008z"/>
	<path fill-rule="evenodd" clip-rule="evenodd" fill="#0C140E" d="M501.996,279.188c-0.364-0.642-0.73-1.284-1.05-1.845
		c-1.368-0.519,0.417,4.828-2.507,1.215c0.097-0.598,0.055-1.406,0.574-1.669c1.323-0.668,0.461-1.403,0.216-2.144
		c-0.118-0.702-0.055-1.379,0.264-2.018c0.29-0.579,0.697-1.025,1.403-1.008c0.745,0.018,1.08,0.544,1.207,1.176
		c0.329,1.646,0.834,3.268,0.771,4.978C502.762,278.431,502.525,278.908,501.996,279.188z"/>
	<path fill-rule="evenodd" clip-rule="evenodd" fill="#101610" d="M491.309,231.702c-0.315-0.673-0.849-1.372,0.187-1.909
		c0.658-0.34,0.524-0.82,0.252-1.331c0.167-0.491,0.321-0.989,0.506-1.474c0.258-0.673,0.328-1.853,1.212-1.611
		c0.868,0.238,0.924,1.454,0.56,2.208c-0.934,1.932-0.678,4.228-1.939,6.036c-0.241,0.001-0.482,0.003-0.724,0.004
		C490.691,233.002,490.828,232.356,491.309,231.702z"/>
	<path fill-rule="evenodd" clip-rule="evenodd" fill="#090C0B" d="M450.8,260.76c-0.167-0.121-0.396-0.219-0.52-0.391
		c-0.261-0.359-0.224-0.734,0.135-1.022c1.567-1.261,2.996-2.719,4.82-3.622c0.421-0.208,1.104-0.447,1.389,0.273
		c0.127,0.318,0.228,0.835-0.229,1.028c-1.962,0.824-3.574,2.139-5.137,3.535C451.149,260.658,450.979,260.685,450.8,260.76z"/>
	<path fill-rule="evenodd" clip-rule="evenodd" fill="#29372D" d="M499.767,275.269c1.269,1.785-1.066,2.119-1.327,3.289
		c-1.217-1.866-0.675-3.957-0.639-5.943c0.022-1.149,0.591-2.288,0.912-3.433c0.512,0.11,0.064,1.158,0.915,0.934
		c0.613,0.994,0.029,1.936-0.116,2.9C499.395,273.785,498.748,274.624,499.767,275.269z"/>
	<path fill-rule="evenodd" clip-rule="evenodd" fill="#1A1E1B" d="M452.479,296.823c-0.115,0.817-0.152,1.899-1.46,1.766
		c-1.31-0.133-2.174-1.192-2.224-2.323c-0.055-1.259,1.248-1.331,2.261-1.412C452.489,294.74,452.408,295.783,452.479,296.823z"/>
	<path fill-rule="evenodd" clip-rule="evenodd" fill="#151C18" d="M473.519,232.804c0.151,0.25,0.304,0.499,0.455,0.749
		c-0.087,1.223-1.937,1.067-1.879,2.402c0.026,0.126,0.03,0.254,0.013,0.382c-0.132,0.075-0.257,0.174-0.398,0.219
		c-1.2,0.387-3.076,1.07-3.499,0.17c-0.563-1.199,1.373-1.582,2.298-2.162C471.485,233.951,472.128,232.708,473.519,232.804z"/>
	<path fill-rule="evenodd" clip-rule="evenodd" fill="#080C0A" d="M475.366,271.761c-0.038,0.696,0.211,1.417-0.306,2.022
		c-0.372,0.434-0.835,0.702-1.421,0.619c-0.823-0.118-0.57-0.77-0.575-1.267c-0.005-0.462-0.055-0.957,0.086-1.38
		c0.317-0.956,0.13-2.624,1.408-2.537C475.838,269.304,475.076,270.892,475.366,271.761z"/>
	<path fill-rule="evenodd" clip-rule="evenodd" fill="#17221B" d="M429.449,223.447c-0.141-1.704-1.118-0.796-1.869-0.599
		c0.018-0.462,0.035-0.925,0.052-1.388c0.729-1.03,0.271-2.271,0.61-3.502c1.604,0.386,1.566,1.749,1.667,2.864
		c0.105,1.166,0.282,2.298,0.605,3.415c-0.245,0.434-0.636,0.618-1.113,0.657C428.377,224.378,428.745,223.908,429.449,223.447z"/>
	<path fill-rule="evenodd" clip-rule="evenodd" fill="#060C08" d="M414.472,231.274c-0.311-0.146-0.623-0.29-0.934-0.435
		c-0.952-1.834-1.067-3.858-1.603-6.495c2.443,1.905,2.075,4.674,3.637,6.293c0.111,0.378,0.241,0.827-0.146,1.057
		C415.02,231.938,414.724,231.574,414.472,231.274z"/>
	<path fill-rule="evenodd" clip-rule="evenodd" fill="#21221D" d="M458.585,300.661c-0.102,1.071-0.563,1.777-1.585,1.752
		c-1.063-0.027-1.906-0.668-1.67-1.768c0.174-0.809,0.885-2.113,1.373-2.12C457.846,298.509,458.541,299.498,458.585,300.661z"/>
	<path fill-rule="evenodd" clip-rule="evenodd" fill="#1E211D" d="M467.448,299.256c-0.169,0.904-0.054,2.058-1.441,1.933
		c-1.159-0.104-1.407-0.939-1.433-2.011c-0.032-1.313,0.64-1.923,1.786-1.87C467.58,297.364,467.339,298.469,467.448,299.256z"/>
	<path fill-rule="evenodd" clip-rule="evenodd" fill="#212A24" d="M410.362,296.889c-0.008,0.229-0.001,0.46-0.027,0.688
		c-0.128,1.129-0.165,2.793-1.389,2.767c-1.136-0.023-0.452-1.585-0.565-2.487c-0.141-1.123-0.638-2.203-0.327-3.371
		C409.207,294.917,410.142,295.561,410.362,296.889z"/>
	<path fill-rule="evenodd" clip-rule="evenodd" fill="#111413" d="M463.641,282.391c-0.939-0.079-2.019-0.015-2.012-0.959
		c0.006-0.944,1.03-0.603,1.65-0.54c1.035,0.107,1.955-0.334,2.931-0.496c0.377-0.062,0.807-0.082,0.946,0.396
		c0.137,0.47-0.237,0.774-0.569,0.873C465.564,281.972,464.512,282.183,463.641,282.391z"/>
	<path fill-rule="evenodd" clip-rule="evenodd" fill="#2B2E2D" d="M501.996,279.188c0.039-0.432,0.094-0.855,0.525-1.1
		c1.535,0.864,2.979,1.908,4.719,2.362l-0.064-0.024c0.051,0.727,0.385,1.59-0.955,1.457
		C504.341,281.696,502.538,281.446,501.996,279.188z"/>
	<path fill-rule="evenodd" clip-rule="evenodd" fill="#0C0E0D" d="M473.144,276.578c-0.959,1.118-1.779,2.231-2.779,3.146
		c-0.303,0.277-1.23-0.209-0.93-0.81c0.538-1.072,1.345-2.015,2.08-2.982c0.272-0.359,0.713-0.279,1.043-0.067
		C472.784,276.008,472.918,276.293,473.144,276.578z"/>
	<path fill-rule="evenodd" clip-rule="evenodd" fill="#090C0B" d="M450.576,262.292c0,1.397-0.015,2.447,0.005,3.496
		c0.009,0.482-0.337,0.782-0.657,0.791c-0.336,0.01-0.742-0.321-0.723-0.749C449.253,264.688,448.731,263.361,450.576,262.292z"/>
	<path fill-rule="evenodd" clip-rule="evenodd" fill="#4F524F" d="M496.787,288.938c0.354-0.166,0.842-0.071,1.042-0.535
		c1.463-0.25,2.827,0.309,4.234,0.513c-0.154,0.277-0.309,0.554-0.463,0.832C499.928,289.884,498.359,289.393,496.787,288.938z"/>
	<path fill-rule="evenodd" clip-rule="evenodd" fill="#121715" d="M507.595,237.345c-0.282-0.93-1.364-0.227-1.785-0.873
		c0.107-0.112,0.196-0.25,0.323-0.331c0.774-0.498,1.183-2.237,2.166-1.521C509.465,235.467,508.023,236.452,507.595,237.345z"/>
	<path fill-rule="evenodd" clip-rule="evenodd" fill="#22362B" d="M410.362,296.889c-1.095-0.488-1.679-1.468-2.308-2.403
		c0.266-0.856,0.531-1.711,0.795-2.567c0.108,0.56-0.072,1.214,0.529,1.612c0.497,0.275,0.295,1.052,0.903,1.249
		c0.267,0.121,0.35,0.372,0.443,0.616C410.758,295.931,410.883,296.489,410.362,296.889z"/>
	<path fill-rule="evenodd" clip-rule="evenodd" fill="#212A24" d="M410.725,295.396c-0.163-0.209-0.326-0.419-0.488-0.628
		c-0.56-1.266-0.07-2.092,1.102-2.634c2.72,0.688-0.002,1.379,0.001,2.069C411.458,294.767,410.889,294.976,410.725,295.396z"/>
	<path fill-rule="evenodd" clip-rule="evenodd" fill="#1F2721" d="M509.068,239.297c-0.156-0.332-0.312-0.663-0.467-0.994
		c0.016-0.699,0.315-1.21,1.046-1.284c0.445-0.044,0.382,0.402,0.404,0.674C510.114,238.455,510.334,239.34,509.068,239.297z"/>
	<path fill-rule="evenodd" clip-rule="evenodd" fill="#24392C" d="M414.472,231.274c0.667,0.308,1.052,0.127,1.101-0.636
		c0.37,0.44,0.917,0.773,0.882,1.458c-0.053,0.246-0.106,0.492-0.16,0.738c-0.26,0.146-0.494,0.125-0.692-0.11
		C414.644,232.693,414.52,232.013,414.472,231.274z"/>
	<path fill-rule="evenodd" clip-rule="evenodd" fill="#FDFDFD" d="M497.479,231.796c-0.762,0.703-2.007,0.746-2.489,1.829
		C494.271,230.908,496.369,232.026,497.479,231.796z"/>
	<path fill-rule="evenodd" clip-rule="evenodd" fill="#181B18" d="M497.923,298.738c-0.22,1.72-0.872,2.717-2.505,2.771
		c-1.217,0.039-2.116-0.683-2.041-1.742c0.094-1.311,0.437-2.872,2.273-2.958C497.081,296.742,497.61,297.756,497.923,298.738z"/>
	<path fill-rule="evenodd" clip-rule="evenodd" fill="#1A1F1C" d="M489.406,302.216c0.007,1.588-0.748,2.314-2.016,2.212
		c-1.382-0.112-3.064-0.415-2.961-2.2c0.07-1.227,0.864-2.377,2.622-2.271C488.764,300.059,489.353,300.928,489.406,302.216z"/>
	<path fill-rule="evenodd" clip-rule="evenodd" fill="#232E28" d="M487.79,294.387c1.297,0.526,1.654,1.607,1.625,2.794
		c-0.027,1.046-0.85,1.514-1.768,1.357c-1.161-0.199-1.593-1.133-1.531-2.251C486.175,295.246,486.715,294.583,487.79,294.387z"/>
	<path fill-rule="evenodd" clip-rule="evenodd" fill="#FCFDFC" d="M446.351,277.624c-0.514-1.149-1.82-1.286-2.647-2.075
		c-1.953-1.861-2.073-5.027-0.18-6.842c0.546-0.523,0.745,0.025,1.13,0.098c1.282,0.242,2.11,1.651,3.578,1.35
		c1.883,1.289,2.257,3.622,3.591,5.331c0.807,1.032-1.25,2.866-3.031,2.714C447.967,278.13,447.163,277.823,446.351,277.624z"/>
	<path fill-rule="evenodd" clip-rule="evenodd" fill="#FBFBFB" d="M456.634,273.688c-0.104-1.339,0.41-2.377,1.462-3.208
		c1.705-1.346,3.438-2.662,5.473-3.447c1.016-0.392,2.049-0.827,3.106,0.381c1.14,1.303,0.052,1.999-0.461,2.77
		c-1.684,2.527-4.201,4.086-6.885,5.311C457.326,276.408,456.621,275.841,456.634,273.688z"/>
	<path fill-rule="evenodd" clip-rule="evenodd" fill="#FBFCFB" d="M471.629,259.275c1.251-0.529,2.502-1.062,3.756-1.585
		c0.62-0.258,1.369-1.242,1.837,0.008c0.412,1.099,1.805,2.138,0.562,3.504c-0.745,0.818-1.544,1.589-2.316,2.38
		c-0.379,0.437-0.984,1.261-1.366,0.55C473.242,262.539,471.763,261.235,471.629,259.275z"/>
	<path fill-rule="evenodd" clip-rule="evenodd" fill="#EFF2F0" d="M453.048,274.946c-0.756-2.155,1.027-1.818,1.894-2.203
		c0.649-0.288,0.657,0.324,0.608,0.823c-0.131,1.337-0.423,2.636-2.058,2.708C452,276.34,453.404,275.177,453.048,274.946z"/>
	<path fill-rule="evenodd" clip-rule="evenodd" fill="#E3EBE5" d="M469.287,264.926c-0.229,0.934-0.855,1.05-1.581,0.955
		c-0.354-0.047-0.918-0.094-0.702-0.599c0.256-0.599,0.633-1.275,1.377-1.376C469.149,263.802,469.045,264.552,469.287,264.926z"/>
	<path fill-rule="evenodd" clip-rule="evenodd" fill="#7C9885" d="M469.696,263.393c1.381,0.696,1.938,1.475,2.357,2.628
		C470.772,265.652,470.052,265.007,469.696,263.393z"/>
	<path fill-rule="evenodd" clip-rule="evenodd" fill="#FDFDFD" d="M507.24,280.451c-2.13,0.326-3.837-0.194-4.719-2.362
		c-0.316-1.582-0.644-3.161-0.943-4.746c-0.109-0.583,0.057-1.401-0.847-1.361c-0.824,0.036-0.782,0.862-0.881,1.435
		c-0.104,0.604-0.063,1.234-0.084,1.853c-0.646,1.191-1.083,0.912-0.976-0.243c0.155-1.648,0.546-3.274,0.837-4.91
		c0.931-3.201,0.701-3.534-2.598-3.733c-0.595-0.036-1.518,0.157-1.479-0.673c0.135-2.84-1.875-3.45-3.854-3.321
		c-3.196,0.207-5.491-0.805-7.089-3.547c-0.128-0.22-0.541-0.274-0.821-0.405c-0.568-0.769-0.019-1.412,0.253-2.144
		c-0.51,0.533-1.002,1.008-1.701,1.173c-0.419,0.338-0.868,0.646-1.249,1.024c-0.562,0.557-1.078,1.595-1.942,0.671
		c-0.611-0.654-0.731-1.425,0.234-2.354c2.937-2.823,4.936-6.209,5.603-10.355c0.575-3.569-0.516-6.756-2.145-9.702
		c-1.262-2.283-3.97-1.731-6.125-1.866c-1.562-0.098-3.258-0.037-4.621,1.071c-0.741-0.218-0.866-0.595-0.214-1.06
		c0.675-0.479,1.393-0.897,2.093-1.342c4.185,0.063,4.28-0.08,3.779-4.022c-0.096-0.748-0.354-1.462-0.303-2.301
		c1.472,1.01,1.878,2.693,2.668,4.126c1.346,2.442,3.153,4.257,6.073,4.773c1.934,0.341,2.754-0.345,2.751-2.251
		c-0.001-1.161,0.079-2.321,0.123-3.482c0.555-0.084,1.268-0.55,1.248,0.614c-0.01,0.626,0.528,0.652,0.995,0.692
		c0.017,0.642,0.034,1.283,0.053,1.924c-0.929,2.92-1.377,5.965-2.431,8.867c-0.571,1.574,1.213,1.136,1.853,1.204
		c1.185,0.128,1.941-0.82,2.392-1.866c0.796-1.843,1.684-3.665,2.267-5.578c0.561-1.845,1.483-3.119,3.43-3.504
		c0.856,0.47,1.312,0.854,0.399,1.875c-2.918,3.258-4.806,7.263-7.603,10.639c-1.964,2.371-1.609,4.315,0.436,5.055
		c1.192,0.432,2.079-0.032,2.928-0.77c1.359,0.156,0.56,0.928,0.177,1.089c-2.619,1.101-3.351,4.621-6.678,4.957
		c-1.216,0.123-1.011,3.002,0.31,3.773c0.651,0.379,1.427,0.711,2.162,0.75c2.472,0.132,4.742,0.547,6.104,2.946
		c0.377,0.664,1.049,0.55,1.671,0.512c1.459,0.326,2.183,1.059,2.41,2.717c0.271,1.976,1.148,3.868,1.762,5.797
		C503.309,275.425,505.784,277.676,507.24,280.451z"/>
	<path fill-rule="evenodd" clip-rule="evenodd" fill="#313B38" d="M482.34,257.465c0.856-0.925,1.438-2.112,2.675-2.899
		c0.171,1.593-1.332,2.48-1.227,3.87C483.306,258.112,482.823,257.789,482.34,257.465z"/>
	<path fill-rule="evenodd" clip-rule="evenodd" fill="#101A15" d="M400.944,270.126c-0.16-0.174-0.319-0.348-0.479-0.521
		c1-3.061,4.409-2.909,6.613-4.712c-3.071-1.37-6.182-2.344-7.489-5.539c-0.939-2.292-0.935-4.667,0.041-6.992
		c0.412-0.07,0.607,0.186,0.764,0.501c0.421,1.868,0.003,3.87,0.937,5.664c0.382,0.734,0.479,1.683,1.57,1.774
		c0.708,0.08,1.331,0.339,1.812,0.885c0.13,1.108,1.077,1.256,1.863,1.432c1.095,0.244,1.898,0.714,2.072,1.875
		c0.176,1.178-0.524,2.006-1.464,2.416C405.028,267.848,403.217,269.436,400.944,270.126z"/>
	<path fill-rule="evenodd" clip-rule="evenodd" fill="#252525" d="M400.043,252.849c-0.138-0.163-0.276-0.325-0.414-0.487
		c-0.189-1.209,0.408-2.041,1.524-2.09c0.646-0.029,1.551,0.473,1.149,1.571c-0.363,0.506-1.214,0.05-1.476,0.753
		C400.608,252.812,400.375,252.985,400.043,252.849z"/>
	<path fill-rule="evenodd" clip-rule="evenodd" fill="#747C7A" d="M400.504,252.363c0.141-1.76,1.236-0.217,1.798-0.52
		c-0.015,0.345-0.029,0.69-0.044,1.034c-0.408-0.174-0.829-0.436-0.826,0.37c0.001,0.658-0.067,1.318-0.105,1.977
		C399.815,254.626,400.889,253.285,400.504,252.363z"/>
	<path fill-rule="evenodd" clip-rule="evenodd" fill="#FEFEFE" d="M400.944,270.126c1.448-1.532,3.168-2.515,5.208-3.166
		c0.841-0.268,2.306-0.649,2.122-2.302c-0.168-1.512-1.374-1.442-2.342-1.758c-0.739-0.242-1.593-0.389-1.957-1.123
		c-0.422-0.852,0.461-0.415,0.736-0.59c1.418,0.605,2.818,1.259,4.261,1.797c0.942,0.351,1.898,0.527,2.747-0.403
		c0.93-1.021-0.222-1.465-0.482-2.15c-0.241-0.633-0.54-1.244-0.827-1.896c2.541-0.36,4.785,0.133,6.997,0.986
		c2.125,0.819,3.755,0.154,4.055-1.961c0.328-2.309,1.104-4.495,1.471-6.773c0.739-4.583-2.739-11.009-6.896-12.856
		c-0.442-0.196-0.843-0.395-1.077-1.005c0.402-0.768,2.415-0.152,1.893-1.872c-0.085-0.464,0.096-0.671,0.572-0.595
		c4.217,2.793,5.389,7.289,6.418,11.788c0.399,1.738,1.434,2.861,2.901,2.555c1.693-0.354,2.138-1.782,1.457-3.654
		c-1.126-3.094-2.082-6.272-2.04-9.636c0.728-3.812,1.438-7.626,2.208-11.43c0.086-0.428,0.109-1.489,1.081-0.631
		c-0.146,0.474-0.382,0.948-0.007,1.425c1.249,1.045,0.078,2.48,0.717,4.12c1.167-4.346,2.776-8.088,4.521-11.778
		c0.858-0.852,1.666-1.768,2.784-2.307c0.52-0.43,1.037-0.859,1.557-1.289c-1.277,4.01-2.674,7.929-4.854,11.512
		c-1.153,0.813-1.491,2.09-1.813,3.337c-0.926,3.58-2.123,7.105-2.551,10.792c-0.194,1.675-0.16,3.436,0.822,4.927
		c1.058,1.604,2.224,1.565,2.84-0.23c0.751-2.184,1.126-4.497,1.665-6.754c0.354-1.487,0.601-3.012,1.103-4.447
		c0.319-0.913,0.851-1.842,2.122-2.316c-0.028,2.258-0.675,4.271-1.431,6.2c-0.926,2.363-1.581,4.719-0.841,7.209
		c0.418,1.41-0.034,2.548-0.608,3.746c-0.509,1.063-1.252,2.118-0.529,3.634c2.034-1.601,1.87-4.343,3.837-6.145
		c0.019,2.44-2.031,3.983-1.878,6.138c-1.508,1.685-1.882,3.875-2.361,5.933c-0.313,1.346-0.063,2.908,1.563,3.699
		c0.468,0.228,0.913,0.622,1.214,1.047c1.215,1.715,2.263,3.523,4.34,4.461c0.897,0.404,0.619,3.705-0.336,4.442
		c-1.185,0.916-1.797-0.313-2.528-0.872c-1.52-1.161-2.327-3.083-4.277-3.825c-1.415-0.538-2.37-0.4-2.845,1.156
		c-1.743,2.438-0.604,4.896,0.008,7.319c0.547,2.161,2.22,4.112,2.057,6.309c-0.134,1.807,0.53,3.167,1.034,4.686
		c-0.063,0.288-0.031,0.688-0.211,0.84c-0.327,0.278-0.576-0.109-0.662-0.35c-1.497-4.174-5.128-7.61-4.008-12.713
		c0.435-1.985-0.613-2.516-2.272-1.356c-1.48,1.032-3.092,1.696-4.751,2.308c-1.372,0.012-1.986,1.184-2.736,1.979
		c-1.958,2.074-2.956,4.7-3.728,7.408c-0.677,2.219-2.82,3.897-2.401,6.519c-0.425,0.388-0.847,0.405-1.264-0.012
		c-1.611-0.184-0.905,1.309-1.399,1.933c-0.556,0.799-1.097,1.604-1.102,2.634c-0.222,0.256-0.443,0.514-0.665,0.771
		c-0.696-0.608-0.1-1.34-0.193-2.007c2.394-6.495,5.985-12.498,7.883-19.194c0.083-0.292,0.081-0.609,0.119-0.914
		c0.7-1.812,1.718-3.079,3.74-3.84c2.271-0.854,2.405-3.643,0.357-5c-1.826-1.211-3.263-3.513-6.094-2.543
		c-0.922,0.315-1.657,0.761-2.295,1.443c-3.786,4.128-8.413,7.053-13.607,9.83C399.524,271.704,400.593,271.083,400.944,270.126z"/>
	<path fill-rule="evenodd" clip-rule="evenodd" fill="#F3F7F5" d="M400.504,252.363c1.065,0.726-0.056,2.082,0.824,2.861
		c0.241,1.78,0.296,3.618,1.572,5.077c-0.967,0.407-1.302,0.324-1.81-0.721c-1.035-2.127-1.219-4.406-1.047-6.731
		C400.196,252.686,400.35,252.525,400.504,252.363z"/>
	<path fill-rule="evenodd" clip-rule="evenodd" fill="#87958B" d="M417.423,234.456c-0.191,0.199-0.381,0.396-0.572,0.595
		c-0.653-0.648-1.663-1.105-1.25-2.326c0.231,0.037,0.462,0.073,0.693,0.11C416.67,233.375,417.047,233.915,417.423,234.456z"/>
	<path fill-rule="evenodd" clip-rule="evenodd" fill="#19201A" d="M435.27,217.279c-1.383,3.385-3.313,6.562-3.893,10.255
		c-0.083,0.522-0.24,1.05-0.461,1.53c-0.263,0.574-0.826,0.673-1.378,0.535c-0.752-0.189-0.657-0.806-0.459-1.312
		c0.437-1.116,0.486-2.251,0.363-3.416c0.209-0.463,0.615-0.592,1.072-0.635c1.823-2.184,2.1-5.162,3.805-7.406
		C434.784,216.668,435.083,216.856,435.27,217.279z"/>
	<path fill-rule="evenodd" clip-rule="evenodd" fill="#464643" d="M435.27,217.279c-0.316-0.148-0.634-0.298-0.95-0.447
		c0.74-0.792,1.479-1.582,2.22-2.374c0.182,0.411,0.582,0.371,0.925,0.449C436.733,215.698,436.002,216.489,435.27,217.279z"/>
	<path fill-rule="evenodd" clip-rule="evenodd" fill="#F1F4F2" d="M500.69,244.008c1.097-1.308,2.229-2.589,3.274-3.937
		c0.487-0.628,0.716-0.624,0.939,0.122c0.514,1.024,0.72,1.88-0.744,2.358c-1.459,0.479-1.956,2.694-3.963,2.269
		C500.362,244.549,500.527,244.278,500.69,244.008z"/>
	<path fill-rule="evenodd" clip-rule="evenodd" fill="#546C5D" d="M496.96,248.152c0.857-0.792,1.563-1.781,2.762-2.132
		C499.508,247.644,498.581,248.347,496.96,248.152z"/>
	<path fill-rule="evenodd" clip-rule="evenodd" fill="#86A595" d="M412.738,290.2c0.421,0.004,0.843,0.008,1.264,0.012
		c0.345,1.689,0.133,3.346-0.159,5.507C412.494,293.708,413.99,291.687,412.738,290.2z"/>
	<path fill-rule="evenodd" clip-rule="evenodd" fill="#FBFBFA" d="M496.932,299.778c-0.005,0.257-0.534,0.661-1.298,0.732
		c-0.785,0.072-1.183-0.41-1.047-1.151c0.129-0.71,0.162-1.674,1.206-1.634C496.592,297.755,496.985,298.354,496.932,299.778z"/>
	<path fill-rule="evenodd" clip-rule="evenodd" fill="#F2F4F3" d="M488.539,302.106c-0.004,1.149-0.418,1.648-1.293,1.494
		c-0.755-0.133-1.596-0.384-1.485-1.401c0.089-0.823,0.474-1.362,1.525-1.317C488.41,300.929,488.47,301.606,488.539,302.106z"/>
	<path fill-rule="evenodd" clip-rule="evenodd" fill="#0D100F" d="M424.848,260.251c0.018-2.051,1.336-3.632,2.854-3.543
		c1.567,0.09,2.829,2.014,2.742,4.242c-0.07,1.853-1.813,2.167-2.85,2.071C426.24,262.896,424.369,262.397,424.848,260.251z"/>
	<path fill-rule="evenodd" clip-rule="evenodd" fill="#F6F8F7" d="M426.366,259.781c-0.338-1.639,0.378-2.063,1.181-2.012
		c1.803,0.115,1.464,1.748,1.705,2.853c0.208,0.946-0.622,1.107-1.346,1.103C426.139,261.713,426.52,260.227,426.366,259.781z"/>
</g>
</svg>
